<svg xmlns="http://www.w3.org/2000/svg" xmlns:xlink="http://www.w3.org/1999/xlink" width="335" height="300" viewBox="0 0 335 300">
  <defs>
    <linearGradient id="linear-gradient" x1="0.523" y1="1" x2="0.5" y2="-0.497" gradientUnits="objectBoundingBox">
      <stop offset="0" stop-color="#539f44"/>
      <stop offset="1" stop-color="#efefef"/>
    </linearGradient>
    <linearGradient id="linear-gradient-2" x1="0.682" y1="0.175" x2="0.278" y2="0.898" gradientUnits="objectBoundingBox">
      <stop offset="0" stop-color="#41873f"/>
      <stop offset="0.329" stop-color="#418b3d"/>
      <stop offset="0.635" stop-color="#419637"/>
      <stop offset="0.932" stop-color="#3fa92d"/>
      <stop offset="1" stop-color="#3fae2a"/>
    </linearGradient>
    <linearGradient id="linear-gradient-3" x1="0.433" y1="0.552" x2="1.592" y2="-0.183" gradientUnits="objectBoundingBox">
      <stop offset="0.138" stop-color="#41873f"/>
      <stop offset="0.403" stop-color="#54a044"/>
      <stop offset="0.714" stop-color="#66b848"/>
      <stop offset="0.908" stop-color="#6cc04a"/>
    </linearGradient>
    <linearGradient id="linear-gradient-4" x1="-44.138" y1="0.134" x2="53.279" y2="0.134" gradientUnits="objectBoundingBox">
      <stop offset="0.092" stop-color="#6cc04a"/>
      <stop offset="0.286" stop-color="#66b848"/>
      <stop offset="0.597" stop-color="#54a044"/>
      <stop offset="0.862" stop-color="#41873f"/>
    </linearGradient>
    <linearGradient id="linear-gradient-5" x1="-0.044" y1="0.5" x2="1.015" y2="0.5" xlink:href="#linear-gradient-4"/>
    <linearGradient id="linear-gradient-6" x1="-97.138" y1="0.362" x2="0.279" y2="0.362" xlink:href="#linear-gradient-4"/>
    <linearGradient id="linear-gradient-7" x1="-1.039" y1="0.503" x2="1.008" y2="0.503" xlink:href="#linear-gradient-4"/>
    <linearGradient id="linear-gradient-8" x1="1.306" y1="-2.111" x2="0.044" y2="2.016" xlink:href="#linear-gradient-2"/>
    <filter id="Elipse_4" x="243" y="49" width="57" height="57" filterUnits="userSpaceOnUse">
      <feOffset dy="3" input="SourceAlpha"/>
      <feGaussianBlur stdDeviation="3" result="blur"/>
      <feFlood flood-opacity="0.161"/>
      <feComposite operator="in" in2="blur"/>
      <feComposite in="SourceGraphic"/>
    </filter>
    <clipPath id="clip-Watch_38_mm_3">
      <rect width="335" height="300"/>
    </clipPath>
  </defs>
  <g id="Watch_38_mm_3" data-name="Watch 38 mm – 3" clip-path="url(#clip-Watch_38_mm_3)">
    <rect width="335" height="300" fill="url(#linear-gradient)"/>
    <text id="Criando_API" data-name="Criando API" transform="translate(86 177)" fill="#333" font-size="20" font-family="Poppins-Medium, Poppins, sans-serif" font-weight="500"><tspan x="0" y="0">Criando API</tspan></text>
    <text id="com" transform="translate(86 201)" fill="#333" font-size="18" font-family="Poppins-Regular, Poppins, sans-serif"><tspan x="0" y="0">com</tspan></text>
    <text id="Nodejs_" data-name="Nodejs " transform="translate(132 222)" fill="#333" font-size="20" font-family="Poppins-Medium, Poppins, sans-serif" font-weight="500"><tspan x="0" y="0">Nodejs </tspan></text>
    <g id="nodejs" transform="translate(23.769 24)">
      <path id="Caminho_7" data-name="Caminho 7" d="M210.5,217.062a2.4,2.4,0,0,1-1.149-.3l-3.638-2.161c-.547-.3-.274-.41-.109-.465a6.635,6.635,0,0,0,1.641-.738.251.251,0,0,1,.274.027l2.79,1.668a.348.348,0,0,0,.328,0l10.913-6.318a.314.314,0,0,0,.164-.3V195.865a.315.315,0,0,0-.164-.3l-10.913-6.291a.346.346,0,0,0-.328,0l-10.913,6.291a.343.343,0,0,0-.164.3v12.609a.344.344,0,0,0,.164.3l2.981,1.723c1.614.82,2.626-.137,2.626-1.094V196.959a.333.333,0,0,1,.328-.328h1.395a.333.333,0,0,1,.328.328V209.4c0,2.161-1.176,3.419-3.227,3.419a4.691,4.691,0,0,1-2.516-.684l-2.872-1.641a2.308,2.308,0,0,1-1.149-2V195.892a2.308,2.308,0,0,1,1.149-2l10.913-6.318a2.441,2.441,0,0,1,2.3,0L222.56,193.9a2.308,2.308,0,0,1,1.149,2V208.5a2.308,2.308,0,0,1-1.149,2l-10.913,6.318a2.8,2.8,0,0,1-1.149.246Zm3.364-8.67c-4.786,0-5.771-2.188-5.771-4.048a.333.333,0,0,1,.328-.328h1.422a.281.281,0,0,1,.3.274c.219,1.449.848,2.161,3.747,2.161,2.3,0,3.282-.52,3.282-1.75,0-.711-.274-1.231-3.857-1.586-2.981-.3-4.841-.957-4.841-3.337,0-2.215,1.86-3.528,4.978-3.528,3.5,0,5.224,1.2,5.443,3.829a.442.442,0,0,1-.082.246.338.338,0,0,1-.219.109h-1.422a.32.32,0,0,1-.3-.246c-.328-1.5-1.176-2-3.419-2-2.516,0-2.817.875-2.817,1.532,0,.793.356,1.039,3.747,1.477,3.364.438,4.951,1.067,4.951,3.419C219.305,207.024,217.336,208.392,213.862,208.392Z" transform="translate(-150.424 -142.969)" fill="#539e43"/>
      <path id="Caminho_8" data-name="Caminho 8" d="M26.214,24.78a1.392,1.392,0,0,0-.711-1.2L13.906,16.9a1.684,1.684,0,0,0-.629-.192h-.11a1.3,1.3,0,0,0-.629.192L.942,23.576a1.391,1.391,0,0,0-.711,1.2L.258,42.722a.68.68,0,0,0,.355.6.621.621,0,0,0,.684,0L8.19,39.385a1.392,1.392,0,0,0,.711-1.2v-8.4a1.391,1.391,0,0,1,.711-1.2l2.926-1.7a1.325,1.325,0,0,1,.711-.192,1.176,1.176,0,0,1,.684.192l2.926,1.7a1.391,1.391,0,0,1,.711,1.2v8.4a1.392,1.392,0,0,0,.711,1.2l6.892,3.939a.667.667,0,0,0,.711,0,.68.68,0,0,0,.356-.6L26.214,24.78ZM81.955.082a.752.752,0,0,0-.684,0,.713.713,0,0,0-.355.6V18.462a.492.492,0,0,1-.738.438l-2.9-1.668a1.41,1.41,0,0,0-1.4,0l-11.6,6.7a1.392,1.392,0,0,0-.711,1.2V38.51a1.392,1.392,0,0,0,.711,1.2l11.6,6.7a1.41,1.41,0,0,0,1.4,0l11.6-6.7a1.392,1.392,0,0,0,.711-1.2V5.169a1.4,1.4,0,0,0-.711-1.231L81.955.082ZM80.889,34.106a.314.314,0,0,1-.164.3l-3.966,2.3a.406.406,0,0,1-.356,0l-3.966-2.3a.343.343,0,0,1-.164-.3v-4.6a.314.314,0,0,1,.164-.3l3.966-2.3a.406.406,0,0,1,.356,0l3.966,2.3a.343.343,0,0,1,.164.3v4.6Zm39.658-4.7a1.366,1.366,0,0,0,.684-1.2V24.944a1.425,1.425,0,0,0-.684-1.2l-11.515-6.673a1.41,1.41,0,0,0-1.395,0l-11.6,6.7a1.391,1.391,0,0,0-.711,1.2V38.346a1.391,1.391,0,0,0,.711,1.2l11.515,6.564a1.359,1.359,0,0,0,1.368,0L115.9,42.23a.687.687,0,0,0,0-1.2l-11.651-6.7a.713.713,0,0,1-.355-.6V29.539a.68.68,0,0,1,.355-.6l3.638-2.079a.668.668,0,0,1,.711,0l3.638,2.079a.713.713,0,0,1,.356.6v3.282a.68.68,0,0,0,.355.6.667.667,0,0,0,.711,0l6.892-4.021Z" fill="#333"/>
      <path id="Caminho_9" data-name="Caminho 9" d="M448.705,121.454a.248.248,0,0,1,.273,0l2.215,1.285a.287.287,0,0,1,.137.246v2.571a.287.287,0,0,1-.137.246l-2.215,1.285a.248.248,0,0,1-.273,0L446.49,125.8a.287.287,0,0,1-.137-.246v-2.571a.286.286,0,0,1,.137-.246Z" transform="translate(-340.548 -92.681)" fill="#539e43"/>
      <g id="Grupo_5" data-name="Grupo 5" transform="translate(31.903 14.687)">
        <path id="Caminho_10" data-name="Caminho 10" d="M14.055,1.255a1.41,1.41,0,0,0-1.395,0L1.146,7.9A1.366,1.366,0,0,0,.462,9.1v13.32a1.425,1.425,0,0,0,.684,1.2l11.515,6.646a1.41,1.41,0,0,0,1.395,0L25.57,23.627a1.366,1.366,0,0,0,.684-1.2V9.1a1.425,1.425,0,0,0-.684-1.2Z" transform="translate(-0.353 1.18)" fill="url(#linear-gradient-2)"/>
        <g id="Grupo_3" data-name="Grupo 3" transform="translate(0 2.245)">
          <path id="Caminho_11" data-name="Caminho 11" d="M12.28,1.24.739,7.886A1.419,1.419,0,0,0,0,9.09V22.41a1.317,1.317,0,0,0,.355.875L13.32,1.076a1.563,1.563,0,0,0-1.039.164ZM13.4,30.4a1.682,1.682,0,0,0,.328-.137l11.542-6.646a1.391,1.391,0,0,0,.711-1.2V9.089a1.393,1.393,0,0,0-.41-.957L13.4,30.4Z" transform="translate(0 -1.051)" fill="none"/>
          <path id="Caminho_12" data-name="Caminho 12" d="M26.391,8.055,14.822,1.409a1.9,1.9,0,0,0-.356-.137L1.5,23.481a1.439,1.439,0,0,0,.383.328l11.569,6.646a1.333,1.333,0,0,0,1.067.137L26.692,8.329a1.435,1.435,0,0,0-.3-.274Z" transform="translate(-1.147 -1.22)" fill="url(#linear-gradient-3)"/>
        </g>
        <g id="Grupo_4" data-name="Grupo 4" transform="translate(0 0)">
          <path id="Caminho_13" data-name="Caminho 13" d="M25.983,22.49V9.17a1.418,1.418,0,0,0-.738-1.2L13.675,1.321a1.208,1.208,0,0,0-.437-.164L25.9,22.791a.552.552,0,0,0,.082-.3ZM.738,7.967A1.419,1.419,0,0,0,0,9.171v13.32a1.479,1.479,0,0,0,.738,1.2l11.57,6.646a1.288,1.288,0,0,0,.9.164L.82,7.94l-.082.027Z" transform="translate(0 1.113)" fill="none"/>
          <path id="Caminho_14" data-name="Caminho 14" d="M49.862.809,49.7.891h.219Z" transform="translate(-37.937 -0.809)" fill-rule="evenodd" fill="url(#linear-gradient-4)"/>
          <path id="Caminho_15" data-name="Caminho 15" d="M27.83,32.859a1.556,1.556,0,0,0,.684-.875L15.823,10.322a1.389,1.389,0,0,0-.984.164L3.351,17.1,15.741,39.7a1.907,1.907,0,0,0,.52-.164l11.57-6.673Z" transform="translate(-2.558 -8.052)" fill-rule="evenodd" fill="url(#linear-gradient-5)"/>
          <path id="Caminho_16" data-name="Caminho 16" d="M111.035,104.271l-.082-.137v.191l.082-.055Z" transform="translate(-84.696 -79.682)" fill-rule="evenodd" fill="url(#linear-gradient-6)"/>
          <path id="Caminho_17" data-name="Caminho 17" d="M67.885,102.725l-11.542,6.646a1.65,1.65,0,0,1-.52.164l.219.41,12.8-7.412v-.164l-.328-.547A1.271,1.271,0,0,1,67.885,102.725Z" transform="translate(-42.613 -77.917)" fill-rule="evenodd" fill="url(#linear-gradient-7)"/>
          <path id="Caminho_18" data-name="Caminho 18" d="M67.885,102.725l-11.542,6.646a1.65,1.65,0,0,1-.52.164l.219.41,12.8-7.412v-.164l-.328-.547A1.271,1.271,0,0,1,67.885,102.725Z" transform="translate(-42.613 -77.917)" fill-rule="evenodd" fill="url(#linear-gradient-8)"/>
        </g>
      </g>
    </g>
    <text id="_MySql_e_MongoDB_" data-name="(MySql e MongoDB)" transform="translate(81 271)" fill="#efefef" font-size="18" font-family="Poppins-Light, Poppins, sans-serif" font-weight="300"><tspan x="0" y="0">(MySql e MongoDB)</tspan></text>
    <g id="Grupo_10" data-name="Grupo 10">
      <text id="Modulo_" data-name="Modulo " transform="translate(231 45)" fill="#fff" font-size="20" font-family="Poppins-Medium, Poppins, sans-serif" font-weight="500"><tspan x="0" y="0">Módulo </tspan></text>
      <g transform="matrix(1, 0, 0, 1, 0, 0)" filter="url(#Elipse_4)">
        <circle id="Elipse_4-2" data-name="Elipse 4" cx="19.5" cy="19.5" r="19.5" transform="translate(252 55)" fill="#438ce0"/>
      </g>
      <text id="_5" data-name="5" transform="translate(265 81)" fill="#efefef" font-size="18" font-family="Poppins-SemiBold, Poppins, sans-serif" font-weight="600"><tspan x="0" y="0">5</tspan></text>
    </g>
  </g>
</svg>
