<svg xmlns="http://www.w3.org/2000/svg" xmlns:xlink="http://www.w3.org/1999/xlink" width="335" height="300" viewBox="0 0 335 300">
  <defs>
    <linearGradient id="linear-gradient" x1="0.5" x2="0.5" y2="1" gradientUnits="objectBoundingBox">
      <stop offset="0" stop-color="#0a7fcb"/>
      <stop offset="1" stop-color="#004978"/>
    </linearGradient>
    <filter id="Elipse_3" x="243" y="49" width="57" height="57" filterUnits="userSpaceOnUse">
      <feOffset dy="3" input="SourceAlpha"/>
      <feGaussianBlur stdDeviation="3" result="blur"/>
      <feFlood flood-opacity="0.161"/>
      <feComposite operator="in" in2="blur"/>
      <feComposite in="SourceGraphic"/>
    </filter>
    <clipPath id="clip-Watch_38_mm_1">
      <rect width="335" height="300"/>
    </clipPath>
  </defs>
  <g id="Watch_38_mm_1" data-name="Watch 38 mm – 1" clip-path="url(#clip-Watch_38_mm_1)">
    <rect width="335" height="300" fill="url(#linear-gradient)"/>
    <g id="react" transform="translate(-151.7 -54)">
      <path id="Caminho_1" data-name="Caminho 1" d="M266.656,118.509c0-6.025-7.546-11.736-19.114-15.277,2.67-11.791,1.483-21.172-3.745-24.176a8.128,8.128,0,0,0-4.153-1.038v4.134a4.293,4.293,0,0,1,2.114.482c2.521,1.446,3.615,6.952,2.762,14.035-.2,1.743-.538,3.578-.946,5.451A89.847,89.847,0,0,0,231.8,100.1a90.436,90.436,0,0,0-7.713-9.27c6.044-5.618,11.717-8.7,15.573-8.7V78c-5.1,0-11.773,3.634-18.521,9.937-6.748-6.266-13.423-9.863-18.521-9.863v4.134c3.838,0,9.529,3.059,15.573,8.64a87.557,87.557,0,0,0-7.657,9.251,86.577,86.577,0,0,0-11.791,2.039c-.426-1.854-.742-3.652-.964-5.377-.871-7.082.2-12.588,2.707-14.053a4.126,4.126,0,0,1,2.132-.482V78.093a8.267,8.267,0,0,0-4.19,1.038c-5.21,3-6.378,12.366-3.689,24.12-11.532,3.56-19.04,9.251-19.04,15.258,0,6.025,7.546,11.736,19.114,15.277-2.67,11.791-1.483,21.172,3.745,24.176A8.15,8.15,0,0,0,202.731,159c5.1,0,11.773-3.634,18.521-9.937,6.748,6.266,13.423,9.863,18.521,9.863a8.266,8.266,0,0,0,4.19-1.038c5.21-3,6.378-12.366,3.689-24.12,11.495-3.541,19-9.251,19-15.258Zm-24.139-12.366c-.686,2.392-1.539,4.857-2.5,7.323-.76-1.483-1.557-2.966-2.429-4.45-.853-1.483-1.761-2.929-2.67-4.338C237.549,105.068,240.089,105.55,242.517,106.143Zm-8.491,19.745c-1.446,2.5-2.929,4.876-4.468,7.082-2.762.241-5.562.371-8.38.371-2.8,0-5.6-.13-8.343-.352q-2.308-3.309-4.487-7.045-2.113-3.643-3.856-7.379c1.149-2.484,2.447-4.969,3.838-7.4,1.446-2.5,2.929-4.876,4.468-7.082,2.762-.241,5.562-.371,8.38-.371,2.8,0,5.6.13,8.343.352q2.308,3.309,4.487,7.045,2.113,3.643,3.856,7.379C236.7,120.975,235.416,123.459,234.026,125.888Zm5.988-2.41c1,2.484,1.854,4.969,2.558,7.379-2.429.593-4.987,1.094-7.638,1.483.908-1.428,1.817-2.892,2.67-4.394C238.457,126.463,239.254,124.961,240.014,123.478Zm-18.8,19.782a76.425,76.425,0,0,1-5.154-5.933c1.669.074,3.374.13,5.1.13,1.743,0,3.467-.037,5.154-.13A72.367,72.367,0,0,1,221.215,143.26Zm-13.794-10.92c-2.633-.389-5.173-.871-7.6-1.465.686-2.392,1.539-4.857,2.5-7.323.76,1.483,1.557,2.966,2.429,4.45S206.513,130.931,207.422,132.34Zm13.7-38.581a76.425,76.425,0,0,1,5.154,5.933c-1.669-.074-3.374-.13-5.1-.13-1.743,0-3.467.037-5.154.13A72.358,72.358,0,0,1,221.122,93.759ZM207.4,104.679c-.908,1.428-1.817,2.892-2.67,4.394-.853,1.483-1.65,2.966-2.41,4.45-1-2.484-1.854-4.969-2.558-7.379,2.429-.575,4.987-1.075,7.638-1.465ZM190.625,127.89c-6.563-2.8-10.809-6.47-10.809-9.381s4.246-6.6,10.809-9.381c1.594-.686,3.337-1.3,5.136-1.872a89.045,89.045,0,0,0,4.171,11.291,87.79,87.79,0,0,0-4.116,11.235c-1.835-.575-3.578-1.205-5.191-1.891Zm9.974,26.493c-2.521-1.446-3.615-6.952-2.762-14.035.2-1.743.538-3.578.946-5.451a89.844,89.844,0,0,0,11.773,2.021,90.439,90.439,0,0,0,7.713,9.27c-6.044,5.618-11.717,8.7-15.573,8.7a4.425,4.425,0,0,1-2.1-.5Zm43.976-14.127c.871,7.082-.2,12.588-2.707,14.053a4.126,4.126,0,0,1-2.132.482c-3.838,0-9.529-3.059-15.573-8.64a87.566,87.566,0,0,0,7.657-9.251,86.571,86.571,0,0,0,11.791-2.039A51.9,51.9,0,0,1,244.575,140.256Zm7.138-12.366c-1.594.686-3.337,1.3-5.135,1.872a89.046,89.046,0,0,0-4.171-11.291,87.791,87.791,0,0,0,4.116-11.235c1.835.575,3.578,1.205,5.21,1.891,6.563,2.8,10.809,6.47,10.809,9.381C262.521,121.42,258.276,125.109,251.713,127.89Z" transform="translate(0 0)" fill="#61dafb"/>
      <circle id="Elipse_1" data-name="Elipse 1" cx="8.473" cy="8.473" r="8.473" transform="translate(212.687 110.037)" fill="#61dafb"/>
    </g>
    <text id="React_Native" data-name="React Native" transform="translate(46 210)" fill="#efefef" font-size="20" font-family="Poppins-Medium, Poppins, sans-serif" font-weight="500"><tspan x="0" y="0">React Native</tspan></text>
    <text id="_Cross-Plataform_" data-name="(Cross-Plataform)" transform="translate(29 268)" fill="#ece7e7" font-size="18" font-family="Poppins-Light, Poppins, sans-serif" font-weight="300"><tspan x="0" y="0">(Cross-Plataform)</tspan></text>
    <text id="como" transform="translate(84 239)" fill="#61dafb" font-size="18" font-family="Poppins-Regular, Poppins, sans-serif"><tspan x="0" y="0">como</tspan></text>
    <text id="Modulo_" data-name="Modulo " transform="translate(231 45)" fill="#fff" font-size="20" font-family="Poppins-Medium, Poppins, sans-serif" font-weight="500"><tspan x="0" y="0">Módulo </tspan></text>
    <g id="Grupo_9" data-name="Grupo 9" transform="translate(10)">
      <g transform="matrix(1, 0, 0, 1, -10, 0)" filter="url(#Elipse_3)">
        <circle id="Elipse_3-2" data-name="Elipse 3" cx="19.5" cy="19.5" r="19.5" transform="translate(252 55)" fill="#438ce0"/>
      </g>
      <text id="_3" data-name="3" transform="translate(256 81)" fill="#efefef" font-size="18" font-family="Poppins-SemiBold, Poppins, sans-serif" font-weight="600"><tspan x="0" y="0">3</tspan></text>
    </g>
  </g>
</svg>
