<svg xmlns="http://www.w3.org/2000/svg" xmlns:xlink="http://www.w3.org/1999/xlink" width="280" height="130" viewBox="0 0 280 130">
  <defs>
    <linearGradient id="linear-gradient" x1="0.5" x2="0.5" y2="1" gradientUnits="objectBoundingBox">
      <stop offset="0" stop-color="#4891e5"/>
      <stop offset="1" stop-color="#1c64b4"/>
    </linearGradient>
    <filter id="Caminho_1356" x="118.028" y="87.182" width="40.248" height="46.261" filterUnits="userSpaceOnUse">
      <feOffset dy="0.2" input="SourceAlpha"/>
      <feGaussianBlur stdDeviation="0.5" result="blur"/>
      <feFlood flood-opacity="0.161"/>
      <feComposite operator="in" in2="blur"/>
      <feComposite in="SourceGraphic"/>
    </filter>
    <linearGradient id="linear-gradient-2" x1="0.637" y1="0.271" x2="-0.25" y2="1.321" gradientUnits="objectBoundingBox">
      <stop offset="0" stop-color="#438bde"/>
      <stop offset="1" stop-color="#22466f"/>
    </linearGradient>
    <filter id="Elipse_142" x="119" y="38" width="43" height="42" filterUnits="userSpaceOnUse">
      <feOffset dy="3" input="SourceAlpha"/>
      <feGaussianBlur stdDeviation="3" result="blur-2"/>
      <feFlood flood-opacity="0.161"/>
      <feComposite operator="in" in2="blur-2"/>
      <feComposite in="SourceGraphic"/>
    </filter>
    <filter id="Caminho_1325" x="87.966" y="0" width="42.366" height="42.366" filterUnits="userSpaceOnUse">
      <feOffset dy="3" input="SourceAlpha"/>
      <feGaussianBlur stdDeviation="3" result="blur-3"/>
      <feFlood flood-opacity="0.161"/>
      <feComposite operator="in" in2="blur-3"/>
      <feComposite in="SourceGraphic"/>
    </filter>
    <filter id="Caminho_1326" x="55" y="37.266" width="42.366" height="42.366" filterUnits="userSpaceOnUse">
      <feOffset dy="3" input="SourceAlpha"/>
      <feGaussianBlur stdDeviation="3" result="blur-4"/>
      <feFlood flood-opacity="0.161"/>
      <feComposite operator="in" in2="blur-4"/>
      <feComposite in="SourceGraphic"/>
    </filter>
    <linearGradient id="linear-gradient-5" x1="0.733" y1="0.402" x2="-0.856" y2="-0.059" xlink:href="#linear-gradient-2"/>
    <filter id="Elipse_142-2" x="91" y="39" width="37" height="37" filterUnits="userSpaceOnUse">
      <feOffset dy="3" input="SourceAlpha"/>
      <feGaussianBlur stdDeviation="3" result="blur-5"/>
      <feFlood flood-opacity="0.161"/>
      <feComposite operator="in" in2="blur-5"/>
      <feComposite in="SourceGraphic"/>
    </filter>
    <filter id="Elipse_142-3" x="183" y="38" width="43" height="42" filterUnits="userSpaceOnUse">
      <feOffset dy="3" input="SourceAlpha"/>
      <feGaussianBlur stdDeviation="3" result="blur-6"/>
      <feFlood flood-opacity="0.161"/>
      <feComposite operator="in" in2="blur-6"/>
      <feComposite in="SourceGraphic"/>
    </filter>
    <filter id="Caminho_1325-2" x="151.966" y="0" width="42.366" height="42.366" filterUnits="userSpaceOnUse">
      <feOffset dy="3" input="SourceAlpha"/>
      <feGaussianBlur stdDeviation="3" result="blur-7"/>
      <feFlood flood-opacity="0.161"/>
      <feComposite operator="in" in2="blur-7"/>
      <feComposite in="SourceGraphic"/>
    </filter>
    <filter id="Caminho_1326-2" x="119" y="37.266" width="42.366" height="42.366" filterUnits="userSpaceOnUse">
      <feOffset dy="3" input="SourceAlpha"/>
      <feGaussianBlur stdDeviation="3" result="blur-8"/>
      <feFlood flood-opacity="0.161"/>
      <feComposite operator="in" in2="blur-8"/>
      <feComposite in="SourceGraphic"/>
    </filter>
    <filter id="Elipse_142-4" x="155" y="39" width="37" height="37" filterUnits="userSpaceOnUse">
      <feOffset dy="3" input="SourceAlpha"/>
      <feGaussianBlur stdDeviation="3" result="blur-9"/>
      <feFlood flood-opacity="0.161"/>
      <feComposite operator="in" in2="blur-9"/>
      <feComposite in="SourceGraphic"/>
    </filter>
    <filter id="Elipse_147" x="122" y="7" width="37" height="37" filterUnits="userSpaceOnUse">
      <feOffset dy="3" input="SourceAlpha"/>
      <feGaussianBlur stdDeviation="3" result="blur-10"/>
      <feFlood flood-opacity="0.161"/>
      <feComposite operator="in" in2="blur-10"/>
      <feComposite in="SourceGraphic"/>
    </filter>
  </defs>
  <g id="Grupo_1338" data-name="Grupo 1338" transform="translate(1558 314)">
    <g id="Grupo_1333" data-name="Grupo 1333" transform="translate(0.192)">
      <path id="Caminho_1345" data-name="Caminho 1345" d="M41.033-415.62c-6.16.9-10.685,4.833-12.153,10.542a23.8,23.8,0,0,0-.5,8.292c.853,6.349,4.335,10.732,9.855,12.414a26.561,26.561,0,0,0,12.2.142c6.941-2.085,10.519-7.936,10.116-16.584a16.157,16.157,0,0,0-1.706-7.344c-2.014-4.122-5.923-6.728-11.087-7.439A27.819,27.819,0,0,0,41.033-415.62Zm6.278,7.794a6.838,6.838,0,0,1,3.032,3.6c.616,1.729.616,7.06.024,9a5.674,5.674,0,0,1-5.212,4.383,6.044,6.044,0,0,1-6.681-4.43,20.194,20.194,0,0,1-.024-8.671,6.051,6.051,0,0,1,4.288-4.359A8.6,8.6,0,0,1,47.311-407.826Z" transform="translate(-1426.018 195.813)" fill="#757b8a"/>
      <g transform="matrix(1, 0, 0, 1, -1558.19, -314)" filter="url(#Caminho_1356)">
        <path id="Caminho_1356-2" data-name="Caminho 1356" d="M-910.681-534.948h12.191l13.6,19.319v-19.319h10.841v42.923h-10.417V-511.04l-14.216,19.353-12.169-.338,16.784-20.669-17.23-22.255h.611" transform="translate(1030.82 623.43)" fill="url(#linear-gradient)"/>
      </g>
      <g id="Grupo_1314" data-name="Grupo 1314" transform="translate(-1361.813 -222)">
        <path id="path9" d="M13421.8-234.721v-26.223h7.753v6.1h6.1v6.571h-6.1v13.449a2.671,2.671,0,0,0,.764,2.215,2.672,2.672,0,0,0,2.215.763h3.12v6.571h-4.425c-6.122,0-9.428-3.305-9.428-9.444" transform="translate(-13418.26 260.944)" fill="#757b8a"/>
        <path id="Caminho_1360" data-name="Caminho 1360" d="M-844.968-455.479h4.667v5.866h-4.667Z" transform="translate(844.968 462.206)" fill="#757b8a"/>
      </g>
      <path id="path17881" d="M562.052,2337.06c-8.626,0-13.987,7.554-13.987,15.872,0,9.58,6.392,16.353,14.136,16.353,5.706,0,9.242-4.5,9.242-4.5v3.432H580.5v-30.028h-9.061v3.718A11.562,11.562,0,0,0,562.052,2337.06Zm2.669,8.293c4.1,0,6.985,4.41,6.985,7.74,0,4.559-3.275,7.668-6.985,7.668-3.531,0-7.183-2.591-7.183-7.614C557.538,2349.169,560.562,2345.354,564.721,2345.354Z" transform="translate(-1888.866 -2557.06)" fill="#757b8a"/>
      <path id="Caminho_1364" data-name="Caminho 1364" d="M849.941-414.548c-4.4.737-7.176,2.543-8.626,5.679a6.432,6.432,0,0,0-.642,3.255,5.948,5.948,0,0,0,.784,3.493c1.521,3.113,4.681,4.9,11.62,6.582,2.828.689,4.253,1.378,4.824,2.281a2.617,2.617,0,0,1-.238,3.3c-.927,1.046-2.02,1.4-3.873,1.283-2.685-.19-4.063-1.307-4.824-3.968l-.38-1.259-1.83.143c-1,.071-3.018.214-4.491.285a16.211,16.211,0,0,0-2.757.309c-.19.356.618,3.351,1.283,4.681,1.521,3.113,4.087,4.966,7.913,5.679a37.285,37.285,0,0,0,10.028,0,11.513,11.513,0,0,0,8.27-6.226,6.874,6.874,0,0,0,.76-3.992,6.89,6.89,0,0,0-.618-3.683c-1.616-3.446-4.063-4.9-11.549-6.8a48.716,48.716,0,0,1-4.824-1.4c-1.5-.76-1.473-2.376,0-3.4a5.368,5.368,0,0,1,4.681-.024c.855.4,1.141.737,1.759,2.02.546,1.164.832,1.521,1.117,1.426.214-.048,2.067-.166,4.087-.261,2.02-.071,3.85-.19,4.064-.261.927-.261-.689-4.562-2.376-6.25a10.374,10.374,0,0,0-4.681-2.519A39,39,0,0,0,849.941-414.548Z" transform="translate(-2144.224 194.688)" fill="#757b8a"/>
      <path id="Caminho_1357" data-name="Caminho 1357" d="M41.033-415.62c-6.16.9-10.685,4.833-12.153,10.542a23.8,23.8,0,0,0-.5,8.292c.853,6.349,4.335,10.732,9.855,12.414a26.561,26.561,0,0,0,12.2.142c6.941-2.085,10.519-7.936,10.116-16.584a16.157,16.157,0,0,0-1.706-7.344c-2.014-4.122-5.923-6.728-11.087-7.439A27.819,27.819,0,0,0,41.033-415.62Zm6.278,7.794a6.838,6.838,0,0,1,3.032,3.6c.616,1.729.616,7.06.024,9a5.674,5.674,0,0,1-5.212,4.383,6.044,6.044,0,0,1-6.681-4.43,20.194,20.194,0,0,1-.024-8.671,6.051,6.051,0,0,1,4.288-4.359A8.6,8.6,0,0,1,47.311-407.826Z" transform="translate(-1529.151 195.813)" fill="#757b8a"/>
      <path id="path17873" d="M138.656,2354.383v14.767h-9.979v-16.539c0-5.228-1.971-7.38-5.254-7.38-3.76,0-6.513,3.329-6.513,8.562v15.358h-9.979v-31.011h9.979v4.068a12.837,12.837,0,0,1,10.647-5.25c5.081,0,8.1,2.023,9.683,5.141,0,0,3.259-5.173,11.637-5.173,7.858,0,11.7,4.9,11.7,11.552v20.674H150.6v-16.539c0-4.033-1.55-7.476-5.258-7.476-3.789,0-6.682,3.5-6.682,9.248Z" transform="translate(-1665.123 -2556.925)" fill="#757b8a"/>
      <path id="Caminho_1365" data-name="Caminho 1365" d="M849.941-414.548c-4.4.737-7.176,2.543-8.626,5.679a6.432,6.432,0,0,0-.642,3.255,5.948,5.948,0,0,0,.784,3.493c1.521,3.113,4.681,4.9,11.62,6.582,2.828.689,4.253,1.378,4.824,2.281a2.617,2.617,0,0,1-.238,3.3c-.927,1.046-2.02,1.4-3.873,1.283-2.685-.19-4.063-1.307-4.824-3.968l-.38-1.259-1.83.143c-1,.071-3.018.214-4.491.285a16.211,16.211,0,0,0-2.757.309c-.19.356.618,3.351,1.283,4.681,1.521,3.113,4.087,4.966,7.913,5.679a37.285,37.285,0,0,0,10.028,0,11.513,11.513,0,0,0,8.27-6.226,6.874,6.874,0,0,0,.76-3.992,6.89,6.89,0,0,0-.618-3.683c-1.616-3.446-4.063-4.9-11.549-6.8a48.716,48.716,0,0,1-4.824-1.4c-1.5-.76-1.473-2.376,0-3.4a5.368,5.368,0,0,1,4.681-.024c.855.4,1.141.737,1.759,2.02.546,1.164.832,1.521,1.117,1.426.214-.048,2.067-.166,4.087-.261,2.02-.071,3.85-.19,4.064-.261.927-.261-.689-4.562-2.376-6.25a10.374,10.374,0,0,0-4.681-2.519A39,39,0,0,0,849.941-414.548Z" transform="translate(-2304.427 194.688)" fill="#757b8a"/>
    </g>
    <g id="Grupo_1337" data-name="Grupo 1337" transform="translate(-32)">
      <g id="Grupo_1326" data-name="Grupo 1326" transform="translate(-1462 -246.109) rotate(-90)">
        <g id="Grupo_1304" data-name="Grupo 1304" transform="translate(61.891 89.398) rotate(180)">
          <g id="Grupo_1302" data-name="Grupo 1302" transform="translate(0 0)">
            <path id="Caminho_1321" data-name="Caminho 1321" d="M6.155,5.487C2.129-3.266,26.048.5,18.621,2.888s-7.258,30.883,0,37.266-25.736,4.7-17.2,0S10.181,14.241,6.155,5.487Z" transform="matrix(0.643, 0.766, -0.766, 0.643, 40.144, 6.971)" fill="#438bde"/>
            <path id="Caminho_1322" data-name="Caminho 1322" d="M6.155,5.487C2.129-3.266,26.048.5,18.621,2.888s-7.258,30.883,0,37.266-25.736,4.7-17.2,0S10.181,14.241,6.155,5.487Z" transform="translate(54.097 67.513) rotate(133)" fill="#438bde"/>
            <g transform="matrix(0, -1, 1, 0, -6, 153.4)" filter="url(#Elipse_142)">
              <ellipse id="Elipse_142-5" data-name="Elipse 142" cx="12" cy="12.5" rx="12" ry="12.5" transform="translate(153 44) rotate(90)" fill="url(#linear-gradient-2)"/>
            </g>
            <g transform="matrix(0, -1, 1, 0, -6, 153.4)" filter="url(#Caminho_1325)">
              <path id="Caminho_1325-3" data-name="Caminho 1325" d="M12.183,0A12.183,12.183,0,1,1,0,12.183,12.183,12.183,0,0,1,12.183,0Z" transform="translate(121.33 6) rotate(90)" fill="url(#linear-gradient-2)"/>
            </g>
            <g transform="matrix(0, -1, 1, 0, -6, 153.4)" filter="url(#Caminho_1326)">
              <path id="Caminho_1326-3" data-name="Caminho 1326" d="M12.183,0A12.183,12.183,0,1,1,0,12.183,12.183,12.183,0,0,1,12.183,0Z" transform="translate(88.37 43.27) rotate(90)" fill="url(#linear-gradient-2)"/>
            </g>
          </g>
        </g>
        <g transform="matrix(0, 1, -1, 0, 67.89, -64)" filter="url(#Elipse_142-2)">
          <circle id="Elipse_142-6" data-name="Elipse 142" cx="9.5" cy="9.5" r="9.5" transform="translate(119 45) rotate(90)" fill="url(#linear-gradient-5)"/>
        </g>
      </g>
      <g id="Grupo_1336" data-name="Grupo 1336" transform="translate(82 -27)">
        <g id="Grupo_1326-2" data-name="Grupo 1326" transform="translate(-1480 -219.109) rotate(-90)">
          <g id="Grupo_1304-2" data-name="Grupo 1304" transform="translate(61.891 89.398) rotate(180)">
            <g id="Grupo_1302-2" data-name="Grupo 1302" transform="translate(0 0)">
              <path id="Caminho_1321-2" data-name="Caminho 1321" d="M6.155,5.487C2.129-3.266,26.048.5,18.621,2.888s-7.258,30.883,0,37.266-25.736,4.7-17.2,0S10.181,14.241,6.155,5.487Z" transform="matrix(0.643, 0.766, -0.766, 0.643, 40.144, 6.971)" fill="#438bde"/>
              <path id="Caminho_1322-2" data-name="Caminho 1322" d="M6.155,5.487C2.129-3.266,26.048.5,18.621,2.888s-7.258,30.883,0,37.266-25.736,4.7-17.2,0S10.181,14.241,6.155,5.487Z" transform="translate(54.097 67.513) rotate(133)" fill="#438bde"/>
              <g transform="matrix(0, -1, 1, 0, -6, 217.4)" filter="url(#Elipse_142-3)">
                <ellipse id="Elipse_142-7" data-name="Elipse 142" cx="12" cy="12.5" rx="12" ry="12.5" transform="translate(217 44) rotate(90)" fill="url(#linear-gradient-2)"/>
              </g>
              <g transform="matrix(0, -1, 1, 0, -6, 217.4)" filter="url(#Caminho_1325-2)">
                <path id="Caminho_1325-4" data-name="Caminho 1325" d="M12.183,0A12.183,12.183,0,1,1,0,12.183,12.183,12.183,0,0,1,12.183,0Z" transform="translate(185.33 6) rotate(90)" fill="url(#linear-gradient-2)"/>
              </g>
              <g transform="matrix(0, -1, 1, 0, -6, 217.4)" filter="url(#Caminho_1326-2)">
                <path id="Caminho_1326-4" data-name="Caminho 1326" d="M12.183,0A12.183,12.183,0,1,1,0,12.183,12.183,12.183,0,0,1,12.183,0Z" transform="translate(152.37 43.27) rotate(90)" fill="url(#linear-gradient-2)"/>
              </g>
            </g>
          </g>
          <g transform="matrix(0, 1, -1, 0, 67.89, -128)" filter="url(#Elipse_142-4)">
            <circle id="Elipse_142-8" data-name="Elipse 142" cx="9.5" cy="9.5" r="9.5" transform="translate(183 45) rotate(90)" fill="url(#linear-gradient-5)"/>
          </g>
          <g transform="matrix(0, 1, -1, 0, 67.89, -128)" filter="url(#Elipse_147)">
            <circle id="Elipse_147-2" data-name="Elipse 147" cx="9.5" cy="9.5" r="9.5" transform="translate(150 13) rotate(90)" fill="url(#linear-gradient-5)"/>
          </g>
        </g>
      </g>
    </g>
  </g>
</svg>
