<svg xmlns="http://www.w3.org/2000/svg" xmlns:xlink="http://www.w3.org/1999/xlink" width="66" height="38" viewBox="0 -4 66 38">
  <defs>
    <linearGradient id="linear-gradient" x1="0.637" y1="0.271" x2="-0.25" y2="1.321" gradientUnits="objectBoundingBox">
      <stop offset="0" stop-color="#438bde"/>
      <stop offset="1" stop-color="#22466f"/>
    </linearGradient>
    <filter id="Elipse_142" x="20.025" y="12.074" width="25.951" height="25.362" filterUnits="userSpaceOnUse">
      <feOffset dy="3" input="SourceAlpha"/>
      <feGaussianBlur stdDeviation="3" result="blur"/>
      <feFlood flood-opacity="0.161"/>
      <feComposite operator="in" in2="blur"/>
      <feComposite in="SourceGraphic"/>
    </filter>
    <filter id="Caminho_1325" x="10.366" y="0" width="25.662" height="25.662" filterUnits="userSpaceOnUse">
      <feOffset dy="3" input="SourceAlpha"/>
      <feGaussianBlur stdDeviation="3" result="blur-2"/>
      <feFlood flood-opacity="0.161"/>
      <feComposite operator="in" in2="blur-2"/>
      <feComposite in="SourceGraphic"/>
    </filter>
    <filter id="Caminho_1326" x="0" y="11.718" width="25.662" height="25.662" filterUnits="userSpaceOnUse">
      <feOffset dy="3" input="SourceAlpha"/>
      <feGaussianBlur stdDeviation="3" result="blur-3"/>
      <feFlood flood-opacity="0.161"/>
      <feComposite operator="in" in2="blur-3"/>
      <feComposite in="SourceGraphic"/>
    </filter>
    <linearGradient id="linear-gradient-4" x1="0.733" y1="0.402" x2="-0.856" y2="-0.059" xlink:href="#linear-gradient"/>
    <filter id="Elipse_142-2" x="11.19" y="12.368" width="24.184" height="23.89" filterUnits="userSpaceOnUse">
      <feOffset dy="3" input="SourceAlpha"/>
      <feGaussianBlur stdDeviation="3" result="blur-4"/>
      <feFlood flood-opacity="0.161"/>
      <feComposite operator="in" in2="blur-4"/>
      <feComposite in="SourceGraphic"/>
    </filter>
    <filter id="Elipse_142-3" x="40.344" y="12.074" width="25.656" height="25.362" filterUnits="userSpaceOnUse">
      <feOffset dy="3" input="SourceAlpha"/>
      <feGaussianBlur stdDeviation="3" result="blur-5"/>
      <feFlood flood-opacity="0.161"/>
      <feComposite operator="in" in2="blur-5"/>
      <feComposite in="SourceGraphic"/>
    </filter>
    <filter id="Caminho_1325-2" x="30.49" y="0" width="25.662" height="25.662" filterUnits="userSpaceOnUse">
      <feOffset dy="3" input="SourceAlpha"/>
      <feGaussianBlur stdDeviation="3" result="blur-6"/>
      <feFlood flood-opacity="0.161"/>
      <feComposite operator="in" in2="blur-6"/>
      <feComposite in="SourceGraphic"/>
    </filter>
    <filter id="Caminho_1326-2" x="20.124" y="11.718" width="25.662" height="25.662" filterUnits="userSpaceOnUse">
      <feOffset dy="3" input="SourceAlpha"/>
      <feGaussianBlur stdDeviation="3" result="blur-7"/>
      <feFlood flood-opacity="0.161"/>
      <feComposite operator="in" in2="blur-7"/>
      <feComposite in="SourceGraphic"/>
    </filter>
    <filter id="Elipse_142-4" x="31.509" y="12.368" width="23.89" height="23.89" filterUnits="userSpaceOnUse">
      <feOffset dy="3" input="SourceAlpha"/>
      <feGaussianBlur stdDeviation="3" result="blur-8"/>
      <feFlood flood-opacity="0.161"/>
      <feComposite operator="in" in2="blur-8"/>
      <feComposite in="SourceGraphic"/>
    </filter>
    <filter id="Elipse_147" x="21.203" y="2.061" width="23.89" height="24.184" filterUnits="userSpaceOnUse">
      <feOffset dy="3" input="SourceAlpha"/>
      <feGaussianBlur stdDeviation="3" result="blur-9"/>
      <feFlood flood-opacity="0.161"/>
      <feComposite operator="in" in2="blur-9"/>
      <feComposite in="SourceGraphic"/>
    </filter>
  </defs>
  <g id="Grupo_1342" data-name="Grupo 1342" transform="translate(1471 314)">
    <g id="Grupo_1326" data-name="Grupo 1326" transform="translate(-1462 -288.564) rotate(-90)">
      <g id="Grupo_1304" data-name="Grupo 1304" transform="translate(19.436 27.975) rotate(180)">
        <g id="Grupo_1302" data-name="Grupo 1302" transform="translate(0 0)">
          <path id="Caminho_1321" data-name="Caminho 1321" d="M1.935,1.725C.669-1.027,8.19.159,5.855.908s-2.282,9.711,0,11.718-8.092,1.479-5.408,0S3.2,4.478,1.935,1.725Z" transform="matrix(0.643, 0.766, -0.766, 0.643, 12.623, 2.057)" fill="#438bde"/>
          <path id="Caminho_1322" data-name="Caminho 1322" d="M1.935,1.725C.669-1.027,8.19.159,5.855.908s-2.282,9.711,0,11.718-8.092,1.479-5.408,0S3.2,4.478,1.935,1.725Z" transform="translate(17.01 21.094) rotate(133)" fill="#438bde"/>
          <g transform="matrix(0, -1, 1, 0, -6, 36.98)" filter="url(#Elipse_142)">
            <ellipse id="Elipse_142-5" data-name="Elipse 142" cx="3.681" cy="3.975" rx="3.681" ry="3.975" transform="translate(36.98 18.07) rotate(90)" fill="url(#linear-gradient)"/>
          </g>
          <g transform="matrix(0, -1, 1, 0, -6, 36.98)" filter="url(#Caminho_1325)">
            <path id="Caminho_1325-3" data-name="Caminho 1325" d="M3.831,0A3.831,3.831,0,1,1,0,3.831,3.831,3.831,0,0,1,3.831,0Z" transform="translate(27.03 6) rotate(90)" fill="url(#linear-gradient)"/>
          </g>
          <g transform="matrix(0, -1, 1, 0, -6, 36.98)" filter="url(#Caminho_1326)">
            <path id="Caminho_1326-3" data-name="Caminho 1326" d="M3.831,0A3.831,3.831,0,1,1,0,3.831,3.831,3.831,0,0,1,3.831,0Z" transform="translate(16.66 17.72) rotate(90)" fill="url(#linear-gradient)"/>
          </g>
        </g>
      </g>
      <g transform="matrix(0, 1, -1, 0, 25.44, -9)" filter="url(#Elipse_142-2)">
        <ellipse id="Elipse_142-6" data-name="Elipse 142" cx="2.945" cy="3.092" rx="2.945" ry="3.092" transform="translate(26.37 18.37) rotate(90)" fill="url(#linear-gradient-4)"/>
      </g>
    </g>
    <g id="Grupo_1336" data-name="Grupo 1336" transform="translate(-1441.876 -308)">
      <g id="Grupo_1326-2" data-name="Grupo 1326" transform="translate(0 19.436) rotate(-90)">
        <g id="Grupo_1304-2" data-name="Grupo 1304" transform="translate(19.436 27.876) rotate(180)">
          <g id="Grupo_1302-2" data-name="Grupo 1302" transform="translate(0 0)">
            <path id="Caminho_1321-2" data-name="Caminho 1321" d="M1.935,1.725C.669-1.027,8.19.159,5.855.908s-2.282,9.711,0,11.718-8.092,1.479-5.408,0S3.2,4.478,1.935,1.725Z" transform="matrix(0.643, 0.766, -0.766, 0.643, 12.623, 1.958)" fill="#438bde"/>
            <path id="Caminho_1322-2" data-name="Caminho 1322" d="M1.935,1.725C.669-1.027,8.19.159,5.855.908s-2.282,9.711,0,11.718-8.092,1.479-5.408,0S3.2,4.478,1.935,1.725Z" transform="translate(17.01 20.995) rotate(133)" fill="#438bde"/>
            <g transform="matrix(0, -1, 1, 0, -6, 57)" filter="url(#Elipse_142-3)">
              <ellipse id="Elipse_142-7" data-name="Elipse 142" cx="3.681" cy="3.828" rx="3.681" ry="3.828" transform="translate(57 18.07) rotate(90)" fill="url(#linear-gradient)"/>
            </g>
            <g transform="matrix(0, -1, 1, 0, -6, 57)" filter="url(#Caminho_1325-2)">
              <path id="Caminho_1325-4" data-name="Caminho 1325" d="M3.831,0A3.831,3.831,0,1,1,0,3.831,3.831,3.831,0,0,1,3.831,0Z" transform="translate(47.15 6) rotate(90)" fill="url(#linear-gradient)"/>
            </g>
            <g transform="matrix(0, -1, 1, 0, -6, 57)" filter="url(#Caminho_1326-2)">
              <path id="Caminho_1326-4" data-name="Caminho 1326" d="M3.831,0A3.831,3.831,0,1,1,0,3.831,3.831,3.831,0,0,1,3.831,0Z" transform="translate(36.79 17.72) rotate(90)" fill="url(#linear-gradient)"/>
            </g>
          </g>
        </g>
        <g transform="matrix(0, 1, -1, 0, 25.44, -29.12)" filter="url(#Elipse_142-4)">
          <circle id="Elipse_142-8" data-name="Elipse 142" cx="2.945" cy="2.945" r="2.945" transform="translate(46.4 18.37) rotate(90)" fill="url(#linear-gradient-4)"/>
        </g>
        <g transform="matrix(0, 1, -1, 0, 25.44, -29.12)" filter="url(#Elipse_147)">
          <ellipse id="Elipse_147-2" data-name="Elipse 147" cx="3.092" cy="2.945" rx="3.092" ry="2.945" transform="translate(36.09 8.06) rotate(90)" fill="url(#linear-gradient-4)"/>
        </g>
      </g>
    </g>
  </g>
</svg>
