<svg xmlns="http://www.w3.org/2000/svg" xmlns:xlink="http://www.w3.org/1999/xlink" width="1421.41" height="347.265" viewBox="0 0 1421.41 347.265">
  <defs>
    <linearGradient id="linear-gradient" x1="0.5" x2="0.5" y2="1" gradientUnits="objectBoundingBox">
      <stop offset="0" stop-color="#4891e5"/>
      <stop offset="1" stop-color="#1c64b4"/>
    </linearGradient>
    <clipPath id="clip-path">
      <rect x="22" width="395.702" height="305.617" fill="none"/>
    </clipPath>
    <clipPath id="clip-path-2">
      <rect y="73" width="442.702" height="158.809" fill="none"/>
    </clipPath>
    <linearGradient id="linear-gradient-2" x1="0.5" x2="0.5" y2="1" gradientUnits="objectBoundingBox">
      <stop offset="0" stop-color="#f70" stop-opacity="0"/>
      <stop offset="1" stop-color="#e6560b"/>
    </linearGradient>
    <clipPath id="clip-path-3">
      <rect y="12" width="442.702" height="146.809" fill="none"/>
    </clipPath>
    <linearGradient id="linear-gradient-3" x1="0.5" x2="0.5" y2="1" gradientUnits="objectBoundingBox">
      <stop offset="0" stop-color="#2a72c4"/>
      <stop offset="1" stop-color="#3480d8" stop-opacity="0"/>
    </linearGradient>
    <linearGradient id="linear-gradient-6" x1="0.5" x2="0.5" y2="1" gradientUnits="objectBoundingBox">
      <stop offset="0" stop-color="#4690e4"/>
      <stop offset="1" stop-color="#1c64b4"/>
    </linearGradient>
    <filter id="Caminho_1483" x="635.164" y="0.038" width="153.542" height="222.074" filterUnits="userSpaceOnUse">
      <feOffset dy="0.2" input="SourceAlpha"/>
      <feGaussianBlur stdDeviation="0.5" result="blur"/>
      <feFlood flood-opacity="0.161"/>
      <feComposite operator="in" in2="blur"/>
      <feComposite in="SourceGraphic"/>
    </filter>
  </defs>
  <g id="Grupo_1373" data-name="Grupo 1373" transform="translate(2376.115 3598.832)">
    <path id="path17881" d="M626.033,2337.06c-48.085,0-77.968,42.109-77.968,88.475,0,53.4,35.631,91.156,78.794,91.156,31.808,0,51.519-25.1,51.519-25.1v19.129h50.51V2343.337h-50.51v20.722S661.208,2337.06,626.033,2337.06Zm14.877,46.228c22.844,0,38.938,24.583,38.938,43.142,0,25.413-18.256,42.742-38.938,42.742-19.683,0-40.04-14.44-40.04-42.443C600.87,2404.557,617.724,2383.288,640.91,2383.288Z" transform="translate(-2126.211 -5895.11)" fill="url(#linear-gradient)"/>
    <g id="Grupo_1364" data-name="Grupo 1364" transform="translate(-1297.888 -753.75)">
      <g id="Grupo_de_rolagem_8" data-name="Grupo de rolagem 8" transform="translate(-1100.227 -2803.435)" clip-path="url(#clip-path)" style="isolation: isolate">
        <g id="Grupo_1343" data-name="Grupo 1343" transform="translate(0 -2)">
          <g id="Grupo_de_rolagem_5" data-name="Grupo de rolagem 5" transform="translate(0 75.809)" clip-path="url(#clip-path-2)" style="isolation: isolate">
            <path id="Caminho_1390" data-name="Caminho 1390" d="M891-525.328V-640.464l6.857-.872c3.577-.523,25.936-.7,49.785-.523l43.227.523,1.491,83.561,1.49,83.561,35.774-81.642c19.378-44.833,37.264-82.689,39.649-84.084,3.279-1.744,13.415-2.268,46.208-1.919l42.332.523,37.264,85.131,37.265,85.131.894-84.608.6-84.608,9.838-1.047c5.068-.523,27.725-.872,49.785-.523l40.246.523v230.273l-79.6.523-79.3.349-4.77-9.071c-2.385-5.059-16.1-36.285-30.408-69.256-18.185-41.344-26.83-58.964-28.619-56.7-1.192,1.744-14.608,31.226-29.513,65.244s-28.321,63.674-29.812,65.767L1049-410.191H891Z" transform="translate(-891 642)" fill="url(#linear-gradient-2)"/>
          </g>
          <g id="Grupo_de_rolagem_7" data-name="Grupo de rolagem 7" transform="translate(0 -10)" clip-path="url(#clip-path-3)" style="isolation: isolate">
            <path id="Caminho_1404" data-name="Caminho 1404" d="M891-526.864v115.136l6.857.872c3.577.523,25.936.7,49.785.523l43.227-.523,1.491-83.561,1.49-83.561,35.774,81.642c19.378,44.833,37.264,82.689,39.649,84.084,3.279,1.745,13.415,2.268,46.208,1.919l42.332-.523,37.264-85.131,37.265-85.131.894,84.608.6,84.608,9.838,1.047c5.068.523,27.725.872,49.785.523l40.246-.523V-641.128l-79.6-.523-79.3-.349-4.77,9.071c-2.385,5.059-16.1,36.285-30.408,69.256-18.185,41.344-26.83,58.964-28.619,56.7-1.192-1.745-14.608-31.226-29.513-65.244s-28.321-63.674-29.812-65.767L1049-642H891Z" transform="translate(-891 642)" fill="url(#linear-gradient-3)"/>
          </g>
        </g>
      </g>
    </g>
    <g id="Grupo_1365" data-name="Grupo 1365" transform="translate(-1297.888 -753.75)">
      <g id="Grupo_de_rolagem_8-2" data-name="Grupo de rolagem 8" transform="translate(-1100.227 -2803.435)" clip-path="url(#clip-path)" style="isolation: isolate">
        <g id="Grupo_1343-2" data-name="Grupo 1343" transform="translate(0 -2)">
          <g id="Grupo_de_rolagem_5-2" data-name="Grupo de rolagem 5" transform="translate(0 75.809)" clip-path="url(#clip-path-2)" style="isolation: isolate">
            <path id="Caminho_1390-2" data-name="Caminho 1390" d="M891-525.328V-640.464l6.857-.872c3.577-.523,25.936-.7,49.785-.523l43.227.523,1.491,83.561,1.49,83.561,35.774-81.642c19.378-44.833,37.264-82.689,39.649-84.084,3.279-1.744,13.415-2.268,46.208-1.919l42.332.523,37.264,85.131,37.265,85.131.894-84.608.6-84.608,9.838-1.047c5.068-.523,27.725-.872,49.785-.523l40.246.523v230.273l-79.6.523-79.3.349-4.77-9.071c-2.385-5.059-16.1-36.285-30.408-69.256-18.185-41.344-26.83-58.964-28.619-56.7-1.192,1.744-14.608,31.226-29.513,65.244s-28.321,63.674-29.812,65.767L1049-410.191H891Z" transform="translate(-891 642)" fill="url(#linear-gradient-2)"/>
          </g>
          <g id="Grupo_de_rolagem_7-2" data-name="Grupo de rolagem 7" transform="translate(0 -10)" clip-path="url(#clip-path-3)" style="isolation: isolate">
            <path id="Caminho_1404-2" data-name="Caminho 1404" d="M891-526.864v115.136l6.857.872c3.577.523,25.936.7,49.785.523l43.227-.523,1.491-83.561,1.49-83.561,35.774,81.642c19.378,44.833,37.264,82.689,39.649,84.084,3.279,1.745,13.415,2.268,46.208,1.919l42.332-.523,37.264-85.131,37.265-85.131.894,84.608.6,84.608,9.838,1.047c5.068.523,27.725.872,49.785.523l40.246-.523V-641.128l-79.6-.523-79.3-.349-4.77,9.071c-2.385,5.059-16.1,36.285-30.408,69.256-18.185,41.344-26.83,58.964-28.619,56.7-1.192-1.745-14.608-31.226-29.513-65.244s-28.321-63.674-29.812-65.767L1049-642H891Z" transform="translate(-891 642)" fill="url(#linear-gradient-3)"/>
          </g>
        </g>
      </g>
    </g>
    <g transform="matrix(1, 0, 0, 1, -2376.11, -3598.83)" filter="url(#Caminho_1483)">
      <path id="Caminho_1483-2" data-name="Caminho 1483" d="M-761-534.948h-48.283l-53.3,78.81V-575.257h-48.708V-357.58l48.708,1.4v-78.544l54.078,78.544,47.756-1.446-56.722-89.927" transform="translate(1547.96 576.59)" fill="url(#linear-gradient-6)"/>
    </g>
    <g id="Grupo_1368" data-name="Grupo 1368" transform="translate(-338.537 481.093)">
      <path id="path17869" d="M65.877,2454.061v-114.3h47.768v114.3Z" transform="translate(-880.521 -6314.37)" fill="url(#linear-gradient-6)"/>
      <path id="path17871" d="M59.9,3254.266a22.149,22.149,0,1,1-22.149-22.149A22.15,22.15,0,0,1,59.9,3254.266Z" transform="translate(-828.246 -7271.26)" fill="url(#linear-gradient-6)"/>
    </g>
    <path id="path17889" d="M825.271,2337.06c-52.026,0-89.481,33.64-89.481,89.48,0,54.615,37.845,89.381,99.61,89.381,30.475,0,60.581-13.605,60.581-13.605l-12.216-39.526s-20.539,10.527-43.9,10.527c-29.344,0-43.008-16.5-46.677-31.482H913.957c1.708-57.006-21.868-104.775-88.686-104.775Zm2.383,40.122c19.283,0,33.194,13.517,35.687,31.284H792.3c1.985-19.092,19.571-31.284,35.355-31.284Z" transform="translate(-2685.001 -5894.246)" fill="url(#linear-gradient-6)"/>
    <g id="Grupo_1367" data-name="Grupo 1367" transform="translate(-1365.816 -3612.291)">
      <path id="path17881-2" data-name="path17881" d="M626.033,2337.06c-48.085,0-77.968,42.109-77.968,88.475,0,53.4,35.631,91.156,78.794,91.156,31.808,0,51.519-25.1,51.519-25.1v25.1h50.814l-.309-220.413h-50.5v67.781S661.208,2337.06,626.033,2337.06Zm14.877,46.228c22.844,0,38.938,24.583,38.938,43.142,0,25.413-18.256,42.742-38.938,42.742-19.683,0-40.04-14.44-40.04-42.443C600.87,2404.557,617.724,2383.288,640.91,2383.288Z" transform="translate(-548.065 -2282.819)" fill="url(#linear-gradient)"/>
    </g>
    <path id="path7" d="M13378.262-197.909V-76.562h-47.247V-198.551c0-37.229,20.034-57.239,57.242-57.239h61.959v39.827h-53.91a16.212,16.212,0,0,0-13.433,4.622,16.185,16.185,0,0,0-4.621,13.431" transform="translate(-14404.921 -3302.26)" fill="url(#linear-gradient-6)"/>
    <path id="Caminho_1437" data-name="Caminho 1437" d="M791-851.993v16.007h26.921v-7.276h-8.1c-4.462,0-8.27-.073-8.489-.145-.315-.121-.388-.631-.388-3.153v-3.007h15.279v-6.548H800.944v-5.093h16.492V-868H791Z" transform="translate(-1896.937 -2472.192)" fill="#576372"/>
    <path id="Caminho_1440" data-name="Caminho 1440" d="M791-851.993v16.007h26.921v-7.276h-8.1c-4.462,0-8.27-.073-8.489-.145-.315-.121-.388-.631-.388-3.153v-3.007h15.279v-6.548H800.944v-5.093h16.492V-868H791Z" transform="translate(-2687.059 -2472.192)" fill="#576372"/>
    <path id="Caminho_1441" data-name="Caminho 1441" d="M24.75-862.131c-1.213,3.25-3.9,10.4-5.966,15.934C16.7-840.691,15-836.132,15-836.083s2.28.1,5.045.1h5.069l.291-1.043c.17-.558.534-1.746.8-2.668l.485-1.625,5.6.049,5.6.073.825,2.62.8,2.595,5.142-.048c3.25-.048,5.117-.17,5.093-.315-.049-.339-11.666-31.141-11.835-31.407A30.363,30.363,0,0,0,32.365-868H26.957Zm9.41,8.416,1.625,5.36H28.848l.218-.679c.121-.364.825-2.668,1.576-5.141,1.673-5.554,1.552-5.19,1.722-5.021C32.438-859.123,33.238-856.65,34.16-853.715Z" transform="translate(-1803.938 -2472.192)" fill="#576372"/>
    <path id="Caminho_1448" data-name="Caminho 1448" d="M637-397.993v16.007h9.944l.049-6.5.073-6.476,1.067.073a3.612,3.612,0,0,1,2.886,1.431c.267.388,1.77,3.056,3.347,5.966a51.017,51.017,0,0,0,3.1,5.408c.17.048,2.692.073,5.651.048l5.384-.073-2.668-5.117c-2.886-5.554-4.293-7.446-6.209-8.44l-1.091-.534,1.067-.315a9.435,9.435,0,0,0,5.6-4.826,12.857,12.857,0,0,0,.024-7.591,8.48,8.48,0,0,0-3.589-3.784c-2.183-1.116-4.026-1.261-14.746-1.285H637Zm17.2-9.071a2.935,2.935,0,0,1,.9,4.681c-.849.873-2.474,1.237-5.627,1.237h-2.522v-6.306H650.1A11.876,11.876,0,0,1,654.2-407.064Z" transform="translate(-2049.047 -2926.192)" fill="#576372"/>
    <path id="Caminho_1449" data-name="Caminho 1449" d="M409.845-870.247c-5.36.509-9.531,3.1-11.763,7.276-2.134,4-2.522,11.3-.873,15.886a13.978,13.978,0,0,0,9.992,9.24,35.691,35.691,0,0,0,10.283.1,12.513,12.513,0,0,0,8.464-6.864c.849-1.77,1.479-3.832,1.188-3.832-.073,0-1.892-.534-4.1-1.213-2.183-.655-4.075-1.213-4.22-1.213a3.129,3.129,0,0,0-.655,1.431c-.849,2.862-2.692,4.414-5.433,4.584-3.783.242-5.8-1.7-6.427-6.16a22.2,22.2,0,0,1,.364-7.494,6.05,6.05,0,0,1,9.677-3.007,6.1,6.1,0,0,1,1.479,1.916c.218.558.558.97.776.97.509,0,8.173-1.674,8.294-1.819.243-.243-1.285-3.371-2.255-4.705a11.872,11.872,0,0,0-7.4-4.729A26.412,26.412,0,0,0,409.845-870.247Z" transform="translate(-1746.92 -2470.827)" fill="#576372"/>
    <path id="Caminho_1450" data-name="Caminho 1450" d="M24.75-862.131c-1.213,3.25-3.9,10.4-5.966,15.934C16.7-840.691,15-836.132,15-836.083s2.28.1,5.045.1h5.069l.291-1.043c.17-.558.534-1.746.8-2.668l.485-1.625,5.6.049,5.6.073.825,2.62.8,2.595,5.142-.048c3.25-.048,5.117-.17,5.093-.315-.049-.339-11.666-31.141-11.835-31.407A30.363,30.363,0,0,0,32.365-868H26.957Zm9.41,8.416,1.625,5.36H28.848l.218-.679c.121-.364.825-2.668,1.576-5.141,1.673-5.554,1.552-5.19,1.722-5.021C32.438-859.123,33.238-856.65,34.16-853.715Z" transform="translate(-1223.092 -2472.192)" fill="#576372"/>
    <path id="Caminho_1451" data-name="Caminho 1451" d="M237-397.993v16.007h10.186V-393.87h3.953c4.463,0,6.257-.315,8.464-1.5,3.492-1.867,5.263-5.942,4.584-10.526-.509-3.468-2.013-5.724-4.657-6.936C257.275-413.9,256.208-414,246.337-414H237Zm15.134-9.192a3.3,3.3,0,0,1,2.353,2.352,2.627,2.627,0,0,1-.121,2.086c-.655,1.7-1.625,2.183-4.681,2.28l-2.5.1v-7.082H249.2A14.569,14.569,0,0,1,252.134-407.185Z" transform="translate(-1961.31 -2926.192)" fill="#576372"/>
    <path id="Caminho_1452" data-name="Caminho 1452" d="M637-397.993v16.007h9.944l.049-6.5.073-6.476,1.067.073a3.612,3.612,0,0,1,2.886,1.431c.267.388,1.77,3.056,3.347,5.966a51.017,51.017,0,0,0,3.1,5.408c.17.048,2.692.073,5.651.048l5.384-.073-2.668-5.117c-2.886-5.554-4.293-7.446-6.209-8.44l-1.091-.534,1.067-.315a9.435,9.435,0,0,0,5.6-4.826,12.857,12.857,0,0,0,.024-7.591,8.48,8.48,0,0,0-3.589-3.784c-2.183-1.116-4.026-1.261-14.746-1.285H637Zm17.2-9.071a2.935,2.935,0,0,1,.9,4.681c-.849.873-2.474,1.237-5.627,1.237h-2.522v-6.306H650.1A11.876,11.876,0,0,1,654.2-407.064Z" transform="translate(-2327.649 -2926.192)" fill="#576372"/>
    <path id="Caminho_1453" data-name="Caminho 1453" d="M41.337-415.616c-6.306.922-10.938,4.948-12.442,10.793a24.366,24.366,0,0,0-.509,8.489c.873,6.5,4.438,10.987,10.089,12.708a27.191,27.191,0,0,0,12.49.146c7.106-2.134,10.768-8.125,10.356-16.977a16.54,16.54,0,0,0-1.746-7.518c-2.062-4.22-6.063-6.888-11.35-7.615A28.476,28.476,0,0,0,41.337-415.616Zm6.427,7.979a7,7,0,0,1,3.1,3.686c.631,1.771.631,7.227.024,9.216a5.808,5.808,0,0,1-5.336,4.487,6.187,6.187,0,0,1-6.839-4.535,20.673,20.673,0,0,1-.024-8.876,6.2,6.2,0,0,1,4.39-4.463A8.8,8.8,0,0,1,47.764-407.637Z" transform="translate(-1681.037 -2925.372)" fill="#576372"/>
    <path id="Caminho_1454" data-name="Caminho 1454" d="M1144.669-870.283c-7.058.679-11.86,4.584-13.63,11.084a25.06,25.06,0,0,0,0,10.574c1.212,4.293,3.953,7.906,7.154,9.458,2.741,1.334,4.729,1.7,9.144,1.722,6.379.024,9.095-.824,15.231-4.729l.534-.34-.049-6.791-.072-6.791-7.567-.073-7.591-.049v6.791h6.573l-.073,1.5-.073,1.528-1.577.776c-3.929,1.916-8.2,1.5-10.332-.994-2.231-2.619-2.668-9.386-.8-13.169,1.14-2.377,3.056-3.468,6.015-3.468,2.3,0,3.88.776,4.778,2.353.364.63.679,1.188.7,1.237.049.073,9.386-1.625,9.507-1.746.17-.17-1.067-3.007-1.819-4.075a10.369,10.369,0,0,0-7.009-4.414A42.645,42.645,0,0,0,1144.669-870.283Z" transform="translate(-2743.828 -2470.811)" fill="#576372"/>
    <path id="Caminho_1455" data-name="Caminho 1455" d="M637-397.993v16.007h9.944l.049-6.5.073-6.476,1.067.073a3.612,3.612,0,0,1,2.886,1.431c.267.388,1.77,3.056,3.347,5.966a51.017,51.017,0,0,0,3.1,5.408c.17.048,2.692.073,5.651.048l5.384-.073-2.668-5.117c-2.886-5.554-4.293-7.446-6.209-8.44l-1.091-.534,1.067-.315a9.435,9.435,0,0,0,5.6-4.826,12.857,12.857,0,0,0,.024-7.591,8.48,8.48,0,0,0-3.589-3.784c-2.183-1.116-4.026-1.261-14.746-1.285H637Zm17.2-9.071a2.935,2.935,0,0,1,.9,4.681c-.849.873-2.474,1.237-5.627,1.237h-2.522v-6.306H650.1A11.876,11.876,0,0,1,654.2-407.064Z" transform="translate(-2211.397 -2926.192)" fill="#576372"/>
    <path id="Caminho_1456" data-name="Caminho 1456" d="M24.75-862.131c-1.213,3.25-3.9,10.4-5.966,15.934C16.7-840.691,15-836.132,15-836.083s2.28.1,5.045.1h5.069l.291-1.043c.17-.558.534-1.746.8-2.668l.485-1.625,5.6.049,5.6.073.825,2.62.8,2.595,5.142-.048c3.25-.048,5.117-.17,5.093-.315-.049-.339-11.666-31.141-11.835-31.407A30.363,30.363,0,0,0,32.365-868H26.957Zm9.41,8.416,1.625,5.36H28.848l.218-.679c.121-.364.825-2.668,1.576-5.141,1.673-5.554,1.552-5.19,1.722-5.021C32.438-859.123,33.238-856.65,34.16-853.715Z" transform="translate(-1551.562 -2472.192)" fill="#576372"/>
    <path id="Caminho_1457" data-name="Caminho 1457" d="M891-625.993v16.007l.558.121a39.214,39.214,0,0,0,4.05.073l3.517-.073.121-11.617.121-11.617,2.91,11.35c1.577,6.233,3.032,11.5,3.226,11.69.267.243,1.091.315,3.759.267l3.444-.073,3.032-11.835,3.032-11.835.073,11.763.048,11.763.8.145a35.011,35.011,0,0,0,4.05.073l3.274-.073v-32.014l-6.475-.073L914.089-642l-.388,1.261c-.194.7-1.31,5.045-2.474,9.628-1.479,5.748-2.183,8.2-2.328,7.882-.1-.242-1.188-4.341-2.4-9.07s-2.3-8.852-2.425-9.143l-.218-.558H891Z" transform="translate(-2386.477 -2699.185)" fill="#576372"/>
    <path id="Caminho_1458" data-name="Caminho 1458" d="M24.75-862.131c-1.213,3.25-3.9,10.4-5.966,15.934C16.7-840.691,15-836.132,15-836.083s2.28.1,5.045.1h5.069l.291-1.043c.17-.558.534-1.746.8-2.668l.485-1.625,5.6.049,5.6.073.825,2.62.8,2.595,5.142-.048c3.25-.048,5.117-.17,5.093-.315-.049-.339-11.666-31.141-11.835-31.407A30.363,30.363,0,0,0,32.365-868H26.957Zm9.41,8.416,1.625,5.36H28.848l.218-.679c.121-.364.825-2.668,1.576-5.141,1.673-5.554,1.552-5.19,1.722-5.021C32.438-859.123,33.238-856.65,34.16-853.715Z" transform="translate(-1468.132 -2472.192)" fill="#576372"/>
    <path id="Caminho_1459" data-name="Caminho 1459" d="M1132.17-641.723c-.1.1-.17,7.3-.17,16.007v15.837l.8.146a45.13,45.13,0,0,0,4.657.073l3.88-.073.121-8.586c.1-6.354.194-8.488.388-8.246.146.194,2.765,4,5.8,8.464,3.056,4.463,5.651,8.2,5.8,8.294a28.517,28.517,0,0,0,4.754.121l4.487-.048v-32.014h-9.216l-.121,8.731-.121,8.707-5.942-8.707-5.942-8.731-4.511-.073A42.22,42.22,0,0,0,1132.17-641.723Z" transform="translate(-2994.808 -2699.359)" fill="#576372"/>
    <path id="Caminho_1461" data-name="Caminho 1461" d="M41.337-415.616c-6.306.922-10.938,4.948-12.442,10.793a24.366,24.366,0,0,0-.509,8.489c.873,6.5,4.438,10.987,10.089,12.708a27.191,27.191,0,0,0,12.49.146c7.106-2.134,10.768-8.125,10.356-16.977a16.54,16.54,0,0,0-1.746-7.518c-2.062-4.22-6.063-6.888-11.35-7.615A28.476,28.476,0,0,0,41.337-415.616Zm6.427,7.979a7,7,0,0,1,3.1,3.686c.631,1.771.631,7.227.024,9.216a5.808,5.808,0,0,1-5.336,4.487,6.187,6.187,0,0,1-6.839-4.535,20.673,20.673,0,0,1-.024-8.876,6.2,6.2,0,0,1,4.39-4.463A8.8,8.8,0,0,1,47.764-407.637Z" transform="translate(-1341.602 -2925.372)" fill="#576372"/>
    <path id="Caminho_1487" data-name="Caminho 1487" d="M220.725-184.074c.675,1.876,1.8,4.877,8.6,22.836l3.076,8.129,5.528.075,5.528.05.25-.675c.125-.4,2.8-7.529,5.9-15.908,3.1-8.354,5.7-15.457,5.8-15.808l.15-.625h-10.28l-.625,2.051c-4.327,14.132-6.553,21.16-6.678,21.01-.15-.15-7.228-22.636-7.228-22.936,0-.075-2.426-.125-5.378-.125H220Z" transform="translate(-2157.956 -3155.185)" fill="#576372"/>
    <path id="Caminho_1488" data-name="Caminho 1488" d="M22-626.134v15.866h9.856v-12.741H42.433v12.741h10.1l-.048-15.818L52.41-641.88H42.553l-.072,5.457-.048,5.481H31.856V-642H22Z" transform="translate(-1847.798 -2698.192)" fill="#576372"/>
    <path id="Caminho_1490" data-name="Caminho 1490" d="M891-625.993v16.007l.558.121a39.214,39.214,0,0,0,4.05.073l3.517-.073.121-11.617.121-11.617,2.91,11.35c1.577,6.233,3.032,11.5,3.226,11.69.267.243,1.091.315,3.759.267l3.444-.073,3.032-11.835,3.032-11.835.073,11.763.048,11.763.8.145a35.011,35.011,0,0,0,4.05.073l3.274-.073v-32.014l-6.475-.073L914.089-642l-.388,1.261c-.194.7-1.31,5.045-2.474,9.628-1.479,5.748-2.183,8.2-2.328,7.882-.1-.242-1.188-4.341-2.4-9.07s-2.3-8.852-2.425-9.143l-.218-.558H891Z" transform="translate(-2164.918 -2699.185)" fill="#576372"/>
    <path id="Caminho_1493" data-name="Caminho 1493" d="M1144.075-870.287c-6.762.651-11.363,4.392-13.059,10.619a24.013,24.013,0,0,0,0,10.131c1.162,4.113,3.788,7.575,6.855,9.062,2.626,1.278,4.531,1.627,8.76,1.65,6.111.023,8.714-.79,14.593-4.531l.511-.325-.047-6.506-.07-6.506-7.25-.07-7.273-.046v6.506h6.3l-.069,1.441-.07,1.464-1.511.743c-3.764,1.836-7.854,1.441-9.9-.953-2.138-2.51-2.556-8.993-.767-12.618,1.092-2.277,2.928-3.323,5.763-3.323,2.207,0,3.718.744,4.577,2.254.349.6.651,1.139.674,1.185.046.07,8.993-1.557,9.109-1.673.163-.163-1.022-2.881-1.742-3.9a9.935,9.935,0,0,0-6.716-4.229A40.851,40.851,0,0,0,1144.075-870.287Z" transform="translate(-2274.001 -2469.818)" fill="#576372"/>
    <path id="Caminho_1494" data-name="Caminho 1494" d="M1070-409.014v3.986h10.145v23.913h9.9v-23.913h9.9V-413H1070Z" transform="translate(-2105.676 -2927.192)" fill="#576372"/>
    <path id="Caminho_1495" data-name="Caminho 1495" d="M1132.17-641.723c-.1.1-.17,7.3-.17,16.007v15.837l.8.146a45.13,45.13,0,0,0,4.657.073l3.88-.073.121-8.586c.1-6.354.194-8.488.388-8.246.146.194,2.765,4,5.8,8.464,3.056,4.463,5.651,8.2,5.8,8.294a28.517,28.517,0,0,0,4.754.121l4.487-.048v-32.014h-9.216l-.121,8.731-.121,8.707-5.942-8.707-5.942-8.731-4.511-.073A42.22,42.22,0,0,0,1132.17-641.723Z" transform="translate(-2204.687 -2699.359)" fill="#576372"/>
    <path id="Caminho_1496" data-name="Caminho 1496" d="M791-851.993v16.007h26.921v-7.276h-8.1c-4.462,0-8.27-.073-8.489-.145-.315-.121-.388-.631-.388-3.153v-3.007h15.279v-6.548H800.944v-5.093h16.492V-868H791Z" transform="translate(-1790.394 -2472.192)" fill="#576372"/>
    <path id="Caminho_1497" data-name="Caminho 1497" d="M-1221.785-3691.443h7.665v7.665h-7.665Z" transform="translate(255.642 375.6)" fill="#da7e51"/>
  </g>
</svg>
