<svg xmlns="http://www.w3.org/2000/svg" xmlns:xlink="http://www.w3.org/1999/xlink" width="321.699" height="94" viewBox="0 0 321.699 94"><defs><filter id="a" x="112.699" y="0" width="95" height="86" filterUnits="userSpaceOnUse"><feOffset dy="3" input="SourceAlpha"/><feGaussianBlur stdDeviation="3" result="b"/><feFlood flood-opacity="0.161"/><feComposite operator="in" in2="b"/><feComposite in="SourceGraphic"/></filter><filter id="c" x="225.699" y="0" width="96" height="86" filterUnits="userSpaceOnUse"><feOffset dy="3" input="SourceAlpha"/><feGaussianBlur stdDeviation="3" result="d"/><feFlood flood-opacity="0.161"/><feComposite operator="in" in2="d"/><feComposite in="SourceGraphic"/></filter><filter id="e" x="186.699" y="8" width="59" height="86" filterUnits="userSpaceOnUse"><feOffset dy="3" input="SourceAlpha"/><feGaussianBlur stdDeviation="3" result="f"/><feFlood flood-opacity="0.161"/><feComposite operator="in" in2="f"/><feComposite in="SourceGraphic"/></filter></defs><g transform="translate(-416.301 -27)"><g transform="translate(4659 1330)"><g transform="translate(-4120.874 -1296.728)"><g transform="matrix(1, 0, 0, 1, -121.83, -6.27)" filter="url(#a)"><text transform="translate(121.7 59)" fill="#f8f8f8" font-size="60" font-family="CalifornianFB-Reg, Californian FB"><tspan x="0" y="0">mo</tspan></text></g><g transform="matrix(1, 0, 0, 1, -121.83, -6.27)" filter="url(#c)"><text transform="translate(234.7 59)" fill="#f8f8f8" font-size="60" font-family="CalifornianFB-Reg, Californian FB"><tspan x="0" y="0">ota</tspan></text></g><g transform="matrix(1, 0, 0, 1, -121.83, -6.27)" filter="url(#e)"><text transform="matrix(-1, 0, 0, 1, 236.7, 67)" fill="rgba(56,135,225,0.93)" font-size="60" font-family="CalifornianFB-Reg, Californian FB"><tspan x="0" y="0">K</tspan></text></g></g><g transform="translate(-4242.699 -1303)"><path d="M-4312.7-1343.833c39.543-5.427,38.769,79.862,38.769,79.862l55.05-86.065,14.731,72.109Z" transform="translate(4312.699 1353.172)" fill="rgba(255,255,255,0.51)"/><path d="M-4312.7-1343.833c39.543-5.427,38.769,79.862,38.769,79.862l55.05-86.065,14.731,72.109Z" transform="translate(4323.675 1350.037)" fill="rgba(56,135,225,0.93)"/></g></g></g></svg>