<svg xmlns="http://www.w3.org/2000/svg" xmlns:xlink="http://www.w3.org/1999/xlink" width="58.25" height="17.658" viewBox="0 0 58.25 17.658">
  <defs>
    <linearGradient id="linear-gradient" x1="0.5" x2="-0.379" y2="1.277" gradientUnits="objectBoundingBox">
      <stop offset="0" stop-color="#438bde"/>
      <stop offset="1" stop-color="#22466f"/>
    </linearGradient>
  </defs>
  <g id="Grupo_1342" data-name="Grupo 1342" transform="translate(1445.053 563.614)">
    <path id="Caminho_1321" data-name="Caminho 1321" d="M1.524,1.359C.527-.809,6.449.125,4.61.715s-1.8,7.646,0,9.226-6.372,1.164-4.258,0S2.521,3.526,1.524,1.359Z" transform="matrix(-0.766, 0.643, -0.643, -0.766, -1408.759, -551.96)" fill="#438bde"/>
    <path id="Caminho_1322" data-name="Caminho 1322" d="M1.524,1.359C.527-.809,6.449.125,4.61.715s-1.8,7.646,0,9.226-6.372,1.164-4.258,0S2.521,3.526,1.524,1.359Z" transform="translate(-1423.748 -548.505) rotate(-137)" fill="#438bde"/>
    <path id="Caminho_1321-2" data-name="Caminho 1321" d="M1.524,1.359C.527-.809,6.449.125,4.61.715s-1.8,7.646,0,9.226-6.372,1.164-4.258,0S2.521,3.526,1.524,1.359Z" transform="matrix(-0.766, 0.643, -0.643, -0.766, -1424.604, -551.96)" fill="#438bde"/>
    <path id="Caminho_1322-2" data-name="Caminho 1322" d="M1.524,1.359C.527-.809,6.449.125,4.61.715s-1.8,7.646,0,9.226-6.372,1.164-4.258,0S2.521,3.526,1.524,1.359Z" transform="translate(-1439.593 -548.505) rotate(-137)" fill="#438bde"/>
    <g id="ellipse-svgrepo-com" transform="translate(-1414.189 -547.517) rotate(-75)">
      <circle id="Elipse_148" data-name="Elipse 148" cx="3.016" cy="3.016" r="3.016" transform="translate(0 0)" fill="url(#linear-gradient)"/>
    </g>
    <g id="ellipse-svgrepo-com-2" data-name="ellipse-svgrepo-com" transform="translate(-1430.034 -547.517) rotate(-75)">
      <circle id="Elipse_148-2" data-name="Elipse 148" cx="3.016" cy="3.016" r="3.016" transform="translate(0 0)" fill="url(#linear-gradient)"/>
    </g>
    <g id="ellipse-svgrepo-com-3" data-name="ellipse-svgrepo-com" transform="translate(-1445.053 -547.517) rotate(-75)">
      <circle id="Elipse_148-3" data-name="Elipse 148" cx="3.016" cy="3.016" r="3.016" transform="translate(0 0)" fill="url(#linear-gradient)"/>
    </g>
    <g id="ellipse-svgrepo-com-4" data-name="ellipse-svgrepo-com" transform="translate(-1437.421 -557.788) rotate(-75)">
      <circle id="Elipse_148-4" data-name="Elipse 148" cx="3.016" cy="3.016" r="3.016" transform="translate(0 0)" fill="url(#linear-gradient)"/>
    </g>
    <g id="ellipse-svgrepo-com-5" data-name="ellipse-svgrepo-com" transform="translate(-1421.682 -557.788) rotate(-75)">
      <circle id="Elipse_148-5" data-name="Elipse 148" cx="3.016" cy="3.016" r="3.016" transform="translate(0 0)" fill="url(#linear-gradient)"/>
    </g>
    <g id="ellipse-svgrepo-com-6" data-name="ellipse-svgrepo-com" transform="translate(-1420.968 -547.929) rotate(-75)">
      <circle id="Elipse_148-6" data-name="Elipse 148" cx="2.433" cy="2.433" r="2.433" transform="translate(0 0)" fill="url(#linear-gradient)"/>
    </g>
    <g id="ellipse-svgrepo-com-7" data-name="ellipse-svgrepo-com" transform="translate(-1437.026 -547.929) rotate(-75)">
      <circle id="Elipse_148-7" data-name="Elipse 148" cx="2.433" cy="2.433" r="2.433" transform="translate(0 0)" fill="url(#linear-gradient)"/>
    </g>
    <g id="ellipse-svgrepo-com-8" data-name="ellipse-svgrepo-com" transform="translate(-1428.842 -556.121) rotate(-75)">
      <circle id="Elipse_148-8" data-name="Elipse 148" cx="2.433" cy="2.433" r="2.433" transform="translate(0 0)" fill="url(#linear-gradient)"/>
    </g>
  </g>
</svg>
