<svg xmlns="http://www.w3.org/2000/svg" xmlns:xlink="http://www.w3.org/1999/xlink" width="321.699" height="94" viewBox="0 0 321.699 94">
  <defs>
    <filter id="mo" x="112.699" y="0" width="95" height="86" filterUnits="userSpaceOnUse">
      <feOffset dy="3" input="SourceAlpha"/>
      <feGaussianBlur stdDeviation="3" result="blur"/>
      <feFlood flood-opacity="0.161"/>
      <feComposite operator="in" in2="blur"/>
      <feComposite in="SourceGraphic"/>
    </filter>
    <filter id="ota" x="225.699" y="0" width="96" height="86" filterUnits="userSpaceOnUse">
      <feOffset dy="3" input="SourceAlpha"/>
      <feGaussianBlur stdDeviation="3" result="blur-2"/>
      <feFlood flood-opacity="0.161"/>
      <feComposite operator="in" in2="blur-2"/>
      <feComposite in="SourceGraphic"/>
    </filter>
    <filter id="K" x="186.699" y="8" width="59" height="86" filterUnits="userSpaceOnUse">
      <feOffset dy="3" input="SourceAlpha"/>
      <feGaussianBlur stdDeviation="3" result="blur-3"/>
      <feFlood flood-opacity="0.161"/>
      <feComposite operator="in" in2="blur-3"/>
      <feComposite in="SourceGraphic"/>
    </filter>
  </defs>
  <g id="Grupo_80" data-name="Grupo 80" transform="translate(-416.301 -27)">
    <g id="Grupo_79" data-name="Grupo 79" transform="translate(4659 1330)">
      <g id="Grupo_48" data-name="Grupo 48" transform="translate(-4120.874 -1296.728)">
        <g transform="matrix(1, 0, 0, 1, -121.83, -6.27)" filter="url(#mo)">
          <text id="mo-2" data-name="mo" transform="translate(121.7 59)" fill="#fff" font-size="60" font-family="CalifornianFB-Reg, Californian FB"><tspan x="0" y="0">mo</tspan></text>
        </g>
        <g transform="matrix(1, 0, 0, 1, -121.83, -6.27)" filter="url(#ota)">
          <text id="ota-2" data-name="ota" transform="translate(234.7 59)" fill="#fff" font-size="60" font-family="CalifornianFB-Reg, Californian FB"><tspan x="0" y="0">ota</tspan></text>
        </g>
        <g transform="matrix(1, 0, 0, 1, -121.83, -6.27)" filter="url(#K)">
          <text id="K-2" data-name="K" transform="matrix(-1, 0, 0, 1, 236.7, 67)" fill="rgba(56,135,225,0.93)" font-size="60" font-family="CalifornianFB-Reg, Californian FB"><tspan x="0" y="0">K</tspan></text>
        </g>
      </g>
      <g id="Grupo_49" data-name="Grupo 49" transform="translate(-4242.699 -1303)">
        <path id="Caminho_43" data-name="Caminho 43" d="M-4312.7-1343.833c39.543-5.427,38.769,79.862,38.769,79.862l55.05-86.065,14.731,72.109Z" transform="translate(4312.699 1353.172)" fill="rgba(153,153,153,0.35)"/>
        <path id="Caminho_46" data-name="Caminho 46" d="M-4312.7-1343.833c39.543-5.427,38.769,79.862,38.769,79.862l55.05-86.065,14.731,72.109Z" transform="translate(4323.675 1350.037)" fill="rgba(56,135,225,0.93)"/>
      </g>
    </g>
  </g>
</svg>
