<svg xmlns="http://www.w3.org/2000/svg" width="180" height="70" viewBox="0 0 1386.137 147.844">
  <g id="Grupo_1290" data-name="Grupo 1290" transform="translate(-614.319 -472)">
    <path id="Caminho_1321" data-name="Caminho 1321" d="M293.91,212.775a10.928,10.928,0,1,1,10.927-10.93,10.941,10.941,0,0,1-10.927,10.93m-120.774,0a10.928,10.928,0,1,1,10.926-10.93,10.941,10.941,0,0,1-10.926,10.93m124.693-65.82,21.838-37.822a4.543,4.543,0,1,0-7.869-4.543l-22.111,38.3a137.274,137.274,0,0,0-112.327,0l-22.112-38.3a4.543,4.543,0,1,0-7.869,4.543l21.838,37.822a128.939,128.939,0,0,0-66.9,103.209H364.727a128.958,128.958,0,0,0-66.9-103.21" transform="translate(512 369.68)" fill="#3ddb85"/>
    <path id="android-studio-logo" d="M41.52,42.1c12.3,0,22.6,6.3,27.3,13.2V43.8h18.8v85.5H74.12a5.34,5.34,0,0,1-5.3-5.3v-6.1c-4.8,6.8-15,13.2-27.3,13.2-23.4,0-41.2-20-41.2-44.4S18,42.1,41.52,42.1m3.4,17.1c-15.2,0-25.5,12-25.5,27.3s10.2,27.4,25.5,27.4,25.5-12,25.5-27.3-10.3-27.4-25.5-27.4M109,43.8h18.8V55.4c5.1-8.5,14.9-13.3,26-13.3,19.8,0,32.6,14,32.6,35.7v51.4H173a5.34,5.34,0,0,1-5.3-5.3v-43c0-13.5-6.8-21.7-17.8-21.7-12.5,0-22,9.7-22,28v42H114.4a5.34,5.34,0,0,1-5.3-5.3Zm133.42-1.7c12.3,0,22.6,6.3,27.3,13.2V1.1h18.8V129.3h-13.4a5.34,5.34,0,0,1-5.3-5.3v-6.1c-4.8,6.8-15,13.2-27.3,13.2-23.4,0-41.2-20-41.2-44.4s17.7-44.6,41.1-44.6m3.5,17.1c-15.2,0-25.5,12-25.5,27.3s10.3,27.3,25.5,27.3,25.5-12,25.5-27.3-10.3-27.3-25.5-27.3m64-15.4h18.8V59a24.16,24.16,0,0,1,22.6-16.1,35.43,35.43,0,0,1,7.3.7V62.9a29.83,29.83,0,0,0-9.4-1.5c-10.8,0-20.5,9.1-20.5,26.2v41.7h-13.5a5.34,5.34,0,0,1-5.3-5.3Zm99.4,87.2c-25.3,0-44.8-19.7-44.8-44.4s19.5-44.4,44.8-44.4,44.8,19.7,44.8,44.4-19.5,44.4-44.8,44.4m0-17.4c15,0,25.6-11.8,25.6-27s-10.6-27-25.6-27c-15.2,0-25.8,11.8-25.8,27s10.6,27,25.8,27m69.5-88.4a12.6,12.6,0,1,1,12.6-12.6,12.6,12.6,0,0,1-12.6,12.6m-9.4,18.6h18.8v85.5h-13.4a5.34,5.34,0,0,1-5.3-5.3Zm75.4-1.7c12.3,0,22.6,6.3,27.3,13.2V1.1h18.8V129.3h-13.5a5.34,5.34,0,0,1-5.3-5.3v-6.1c-4.8,6.8-15,13.2-27.3,13.2-23.4,0-41.2-20-41.2-44.4s17.8-44.6,41.2-44.6m3.4,17.1c-15.2,0-25.5,12-25.5,27.3s10.3,27.4,25.5,27.4,25.5-12,25.5-27.3-10.3-27.4-25.5-27.4m117.6,70.1a49.521,49.521,0,0,1-12.105-1.5,29.63,29.63,0,0,1-10.195-4.7,24.319,24.319,0,0,1-7.3-8,27,27,0,0,1-3.3-11.1h11.7a20,20,0,0,0,3.1,7,15.439,15.439,0,0,0,5,4.5,24.089,24.089,0,0,0,6.3,2.4,37.18,37.18,0,0,0,6.7.8,24.68,24.68,0,0,0,12.5-3.1,10.35,10.35,0,0,0,5.3-9.5A12.68,12.68,0,0,0,680,97c-2.3-2.4-6.2-4.3-11.6-5.8l-10.8-2.7q-10.65-2.85-16.2-9A21.87,21.87,0,0,1,636,64.3a19.421,19.421,0,0,1,2.1-9.2,21.391,21.391,0,0,1,5.8-6.9,26.22,26.22,0,0,1,8.7-4.3,39.83,39.83,0,0,1,10.9-1.5,34.5,34.5,0,0,1,11.9,1.9,31.631,31.631,0,0,1,8.9,5.1,24.42,24.42,0,0,1,8.5,16.2H681.2a18.07,18.07,0,0,0-17.8-12.9,19.84,19.84,0,0,0-11.1,3.1,9.68,9.68,0,0,0-4.6,8.5,11.15,11.15,0,0,0,3.1,8.1c2.1,2.2,5.6,3.9,10.6,5.3L674.3,81c6.7,1.7,11.8,4.6,15.5,8.8s5.5,9.4,5.4,15.7a24,24,0,0,1-2.3,10.9,19.529,19.529,0,0,1-6.3,7.4,28.732,28.732,0,0,1-9.4,4.3,61.21,61.21,0,0,1-11.38,1.2Zm80.3-.9a33.439,33.439,0,0,1-9.4-1.4,19.59,19.59,0,0,1-7.5-4.4,21,21,0,0,1-5-7.5,28,28,0,0,1-1.8-10.7V54.9h-17.9v-11h17.9V20.6h11.7V43.9h24.4v11h-24.4v48.4q0,8,3.6,11.1c2.4,2.1,5.8,3.1,10.3,3.1a33.081,33.081,0,0,0,5.5-.5,28.26,28.26,0,0,0,5-1.3v10.5A32.439,32.439,0,0,1,746.12,128.4Zm61.3.9a32.37,32.37,0,0,1-12.3-2.3,28.33,28.33,0,0,1-9.7-6.6A30.182,30.182,0,0,1,779,110a39.83,39.83,0,0,1-2.3-13.7V43.9h11.7V94.6c0,7.3,1.9,13,5.7,17.3a18.87,18.87,0,0,0,14.7,6.5,22.06,22.06,0,0,0,9.8-2.3,25.191,25.191,0,0,0,8-6.5A33.25,33.25,0,0,0,832,99.2a44.918,44.918,0,0,0,1.9-13.7V43.9h11.7v83.7H833.9V113.5a29.28,29.28,0,0,1-11.5,11.9,31,31,0,0,1-14.98,3.9Zm98.1,0a40.64,40.64,0,0,1-16.5-3.4,39.839,39.839,0,0,1-13.2-9.4,42.731,42.731,0,0,1-8.8-13.8,46.91,46.91,0,0,1,0-33.8,42.73,42.73,0,0,1,8.8-13.8A39.84,39.84,0,0,1,889,45.7a40.49,40.49,0,0,1,34.6,1A34.27,34.27,0,0,1,936.52,58V2h11.7V127.6h-11.7V113.5a34.27,34.27,0,0,1-12.9,11.3,38.219,38.219,0,0,1-18.1,4.5Zm1.1-10.9a30.39,30.39,0,0,0,22.3-9.5,32.12,32.12,0,0,0,6.3-10.3,37.25,37.25,0,0,0,0-25.5,30.881,30.881,0,0,0-6.3-10.4,30.49,30.49,0,0,0-43.1-1.4l-1.4,1.4a31.52,31.52,0,0,0-6.3,10.4,37.25,37.25,0,0,0,0,25.5,30.451,30.451,0,0,0,6.3,10.3,30,30,0,0,0,22.2,9.5Zm72-99.7a8.45,8.45,0,0,1-6.4-2.6,8.91,8.91,0,1,1,12.6-12.6,9.06,9.06,0,0,1,0,12.6,8.17,8.17,0,0,1-6.2,2.6Zm-6,25.1h11.7v83.7h-11.7ZM1046,129.3a44.49,44.49,0,0,1-17.6-3.4,42.29,42.29,0,0,1-13.8-9.4,44.39,44.39,0,0,1,0-61.5,42.291,42.291,0,0,1,13.8-9.4,46.62,46.62,0,0,1,35.2,0,42.29,42.29,0,0,1,13.8,9.4,44.39,44.39,0,0,1,0,61.5,42.29,42.29,0,0,1-13.8,9.4,46.321,46.321,0,0,1-17.6,3.4Zm0-10.9a30.7,30.7,0,0,0,29.4-20,36.69,36.69,0,0,0,0-25.3,30.62,30.62,0,0,0-29.4-20,31.29,31.29,0,0,0-13.1,2.6,29.189,29.189,0,0,0-10,7,31.781,31.781,0,0,0-6.4,10.4,36.689,36.689,0,0,0,0,25.3,31.139,31.139,0,0,0,6.4,10.4,29.189,29.189,0,0,0,10,7,34.771,34.771,0,0,0,13.1,2.6Z" transform="translate(910.68 480)"/>
  </g>
</svg>
