<svg xmlns="http://www.w3.org/2000/svg" xmlns:xlink="http://www.w3.org/1999/xlink" width="335" height="300" viewBox="0 0 335 300">
  <defs>
    <linearGradient id="linear-gradient" x1="0.523" y1="1" x2="0.5" y2="-0.497" gradientUnits="objectBoundingBox">
      <stop offset="0" stop-color="#0877b9"/>
      <stop offset="1" stop-color="#fff"/>
    </linearGradient>
    <filter id="Elipse_5" x="243" y="49" width="57" height="57" filterUnits="userSpaceOnUse">
      <feOffset dy="3" input="SourceAlpha"/>
      <feGaussianBlur stdDeviation="3" result="blur"/>
      <feFlood flood-opacity="0.161"/>
      <feComposite operator="in" in2="blur"/>
      <feComposite in="SourceGraphic"/>
    </filter>
    <clipPath id="clip-Watch_38_mm_6">
      <rect width="335" height="300"/>
    </clipPath>
  </defs>
  <g id="Watch_38_mm_6" data-name="Watch 38 mm – 6" clip-path="url(#clip-Watch_38_mm_6)">
    <rect width="335" height="300" fill="url(#linear-gradient)"/>
    <text id="Configuração" transform="translate(23 200)" fill="#efefef" font-size="20" font-family="Poppins-Light, Poppins" font-weight="300"><tspan x="0" y="0">Configuração</tspan></text>
    <text id="Ambiente" transform="translate(59 238)" fill="#efefef" font-size="20" font-family="Poppins-Regular, Poppins"><tspan x="0" y="0">Ambiente</tspan></text>
    <g id="visual-code" transform="translate(10.182 28.684) rotate(-13)">
      <path id="Caminho_39" data-name="Caminho 39" d="M3.473,252.487s-1.914-1.379.383-3.221l5.35-4.784a2.271,2.271,0,0,1,3.15-.207L61.73,281.655V299.58s-.024,2.815-3.636,2.5Z" transform="translate(0 -211.419)" fill="#2489ca"/>
      <path id="Caminho_40" data-name="Caminho 40" d="M18.119,498.8,5.392,510.37s-1.308.973,0,2.711l5.909,5.374s1.4,1.507,3.477-.207l13.492-10.23Z" transform="translate(-1.92 -446.178)" fill="#1070b3"/>
      <path id="Caminho_41" data-name="Caminho 41" d="M311.192,60.275l23.34-17.822-.151-17.83s-1-3.891-4.322-1.866L299,51.025Z" transform="translate(-272.65 -7.557)" fill="#0877b9"/>
      <path id="Caminho_42" data-name="Caminho 42" d="M689.186,90.689a3.209,3.209,0,0,0,3,.933l18.188-8.963c2.328-1.587,2-3.556,2-3.556V25.583a3.578,3.578,0,0,0-2.408-3.166l-15.764-7.6c-3.445-2.129-5.7.383-5.7.383s2.9-2.089,4.322,1.866V87.835a3.214,3.214,0,0,1-.311,1.4c-.415.837-1.316,1.619-3.476,1.292Z" transform="translate(-631.092 0)" fill="#3c99d4"/>
    </g>
    <text id="do" transform="translate(30 225)" fill="#333" font-size="20" font-family="Poppins-Regular, Poppins, sans-serif"><tspan x="0" y="0">do</tspan></text>
    <text id="de" transform="translate(35 266)" fill="#efefef" font-size="18" font-family="Poppins-Regular, Poppins, sans-serif"><tspan x="0" y="0">de</tspan></text>
    <text id="Desenvolvimento" transform="translate(63 267)" fill="#333" font-size="20" font-family="Poppins-Medium, Poppins, sans-serif" font-weight="500"><tspan x="0" y="0">Desenvolvimento</tspan></text>
    <line id="Linha_1" data-name="Linha 1" x2="215" transform="translate(47 279)" fill="none" stroke="#efefef" stroke-linecap="round" stroke-width="1"/>
    <text id="Modulo_" data-name="Modulo " transform="translate(231 45)" fill="#464646" font-size="20" font-family="Poppins-Medium, Poppins, sans-serif" font-weight="500"><tspan x="0" y="0">Módulo </tspan></text>
    <g id="Grupo_8" data-name="Grupo 8" transform="translate(11)">
      <g transform="matrix(1, 0, 0, 1, -11, 0)" filter="url(#Elipse_5)">
        <circle id="Elipse_5-2" data-name="Elipse 5" cx="19.5" cy="19.5" r="19.5" transform="translate(252 55)" fill="#438ce0"/>
      </g>
      <text id="_1" data-name="1" transform="translate(257 81)" fill="#efefef" font-size="18" font-family="Poppins-SemiBold, Poppins, sans-serif" font-weight="600"><tspan x="0" y="0">1</tspan></text>
    </g>
  </g>
</svg>
