<svg xmlns="http://www.w3.org/2000/svg" xmlns:xlink="http://www.w3.org/1999/xlink" width="335" height="300" viewBox="0 0 335 300">
  <defs>
    <linearGradient id="linear-gradient" x1="0.5" x2="0.5" y2="1" gradientUnits="objectBoundingBox">
      <stop offset="0" stop-color="#b17d9f"/>
      <stop offset="1" stop-color="#7e015a"/>
    </linearGradient>
    <filter id="Elipse_3" x="233" y="49" width="68" height="68" filterUnits="userSpaceOnUse">
      <feOffset dy="3" input="SourceAlpha"/>
      <feGaussianBlur stdDeviation="3" result="blur"/>
      <feFlood flood-opacity="0.161"/>
      <feComposite operator="in" in2="blur"/>
      <feComposite in="SourceGraphic"/>
    </filter>
    <clipPath id="clip-Watch_38_mm_2">
      <rect width="335" height="300"/>
    </clipPath>
  </defs>
  <g id="Watch_38_mm_2" data-name="Watch 38 mm – 2" clip-path="url(#clip-Watch_38_mm_2)">
    <rect width="335" height="300" fill="url(#linear-gradient)"/>
    <g id="adobe-xd" transform="translate(24 24)">
      <path id="Caminho_4" data-name="Caminho 4" d="M10,10H114.875V112.015H10Z" transform="translate(-5.233 -5.233)" fill="#2e001e"/>
      <path id="Caminho_5" data-name="Caminho 5" d="M0,0V111.549H114.409V0ZM4.767,4.767H109.642V106.782H4.767Z" fill="#ff2bc2"/>
      <path id="Caminho_6" data-name="Caminho 6" d="M106.746,75.9a6.546,6.546,0,0,0-2.765-.477c-6.007,0-10.011,4.624-10.011,12.3,0,8.771,4.1,12.3,9.439,12.3A8.993,8.993,0,0,0,106.7,99.5V75.9ZM85.39,88.107c0-11.107,7.151-19.783,18.878-19.783a21.14,21.14,0,0,1,2.479.1V56.024a.478.478,0,0,1,.477-.477H114.9c.381,0,.477.143.477.381V99.5a33.955,33.955,0,0,0,.238,4.672c0,.334,0,.381-.286.524a28.4,28.4,0,0,1-12.2,2.765c-10.345,0-17.733-6.388-17.733-19.354ZM69.134,80.384l13.348,25.885c.238.381.1.763-.286.763H73.9a.935.935,0,0,1-1-.62q-4.576-9.439-9.343-19.593h-.1c-2.86,6.388-6.006,13.348-9.057,19.64a.915.915,0,0,1-.858.524H45.632c-.477,0-.524-.381-.286-.667L58.408,81.194,45.775,56.215a.422.422,0,0,1,.334-.715h8.2c.477,0,.715.1.858.524,3,6.34,6.054,12.585,8.914,18.973h.1C66.941,68.7,69.992,62.365,72.9,56.12c.238-.381.381-.62.858-.62h7.675c.381,0,.524.286.286.715Z" transform="translate(-23.656 -29.043)" fill="#ff2bc2"/>
    </g>
    <text id="Design_" data-name="Design " transform="translate(82 177)" fill="#efefef" font-size="24" font-family="Poppins-SemiBold, Poppins, sans-serif" font-weight="600"><tspan x="0" y="0">Design </tspan></text>
    <text id="é" transform="translate(172 201)" fill="#efefef" font-size="20" font-family="Poppins-Regular, Poppins, sans-serif"><tspan x="0" y="0">é</tspan></text>
    <text id="Tudo" transform="translate(193 228)" fill="#efefef" font-size="24" font-family="Poppins-Medium, Poppins, sans-serif" font-weight="500"><tspan x="0" y="0">Tudo</tspan></text>
    <text id="_Adobe_XD_" data-name="(Adobe XD)" transform="translate(111 271)" fill="#efefef" font-size="20" font-family="Poppins-Light, Poppins, sans-serif" font-weight="300"><tspan x="0" y="0">(Adobe XD)</tspan></text>
    <text id="Modulo_" data-name="Modulo " transform="translate(222 47)" fill="#fff" font-size="22" font-family="Poppins-Medium, Poppins, sans-serif" font-weight="500"><tspan x="0" y="0">Modulo </tspan></text>
    <g transform="matrix(1, 0, 0, 1, 0, 0)" filter="url(#Elipse_3)">
      <circle id="Elipse_3-2" data-name="Elipse 3" cx="25" cy="25" r="25" transform="translate(242 55)" fill="#438ce0"/>
    </g>
    <text id="_4" data-name="4" transform="translate(261 87)" fill="#efefef" font-size="20" font-family="Poppins-SemiBold, Poppins, sans-serif" font-weight="600"><tspan x="0" y="0">4</tspan></text>
  </g>
</svg>
