<svg xmlns="http://www.w3.org/2000/svg" xmlns:xlink="http://www.w3.org/1999/xlink" width="335" height="300" viewBox="0 0 335 300">
  <defs>
    <linearGradient id="linear-gradient" x1="0.5" x2="0.5" y2="1" gradientUnits="objectBoundingBox">
      <stop offset="0" stop-color="#b17d9f"/>
      <stop offset="1" stop-color="#7e015a"/>
    </linearGradient>
    <filter id="Elipse_3" x="243" y="49" width="57" height="57" filterUnits="userSpaceOnUse">
      <feOffset dy="3" input="SourceAlpha"/>
      <feGaussianBlur stdDeviation="3" result="blur"/>
      <feFlood flood-opacity="0.161"/>
      <feComposite operator="in" in2="blur"/>
      <feComposite in="SourceGraphic"/>
    </filter>
    <clipPath id="clip-Watch_38_mm_2">
      <rect width="335" height="300"/>
    </clipPath>
  </defs>
  <g id="Watch_38_mm_2" data-name="Watch 38 mm – 2" clip-path="url(#clip-Watch_38_mm_2)">
    <rect width="335" height="300" fill="url(#linear-gradient)"/>
    <g id="adobe-xd" transform="translate(24 24)">
      <path id="Caminho_4" data-name="Caminho 4" d="M10,10H89.75V87.575H10Z" transform="translate(-6.375 -6.375)" fill="#2e001e"/>
      <path id="Caminho_5" data-name="Caminho 5" d="M0,0V84.825H87V0ZM3.625,3.625h79.75V81.2H3.625Z" fill="#ff2bc2"/>
      <path id="Caminho_6" data-name="Caminho 6" d="M92,71.015a4.978,4.978,0,0,0-2.1-.362c-4.568,0-7.612,3.516-7.612,9.353,0,6.67,3.118,9.352,7.178,9.352a6.839,6.839,0,0,0,2.5-.4V71.015Zm-16.24,9.28c0-8.446,5.437-15.044,14.355-15.044A16.076,16.076,0,0,1,92,65.324V55.9a.363.363,0,0,1,.363-.362H98.2c.29,0,.363.109.363.29V88.959a25.818,25.818,0,0,0,.181,3.552c0,.254,0,.29-.218.4a21.593,21.593,0,0,1-9.28,2.1c-7.866,0-13.485-4.857-13.485-14.717ZM63.4,74.423l10.15,19.684c.181.29.072.58-.218.58H67.027a.711.711,0,0,1-.761-.471q-3.48-7.178-7.1-14.9h-.073c-2.175,4.857-4.567,10.15-6.887,14.935a.7.7,0,0,1-.652.4H45.53c-.362,0-.4-.29-.217-.507l9.933-19.1L45.639,56.044a.321.321,0,0,1,.254-.544h6.235c.362,0,.544.073.653.4,2.284,4.821,4.6,9.57,6.779,14.427h.073c2.1-4.785,4.422-9.606,6.634-14.355.181-.29.29-.471.653-.471h5.836c.29,0,.4.217.218.544Z" transform="translate(-28.819 -35.381)" fill="#ff2bc2"/>
    </g>
    <text id="Design_" data-name="Design " transform="translate(82 177)" fill="#efefef" font-size="20" font-family="Poppins-Medium, Poppins, sans-serif" font-weight="500"><tspan x="0" y="0">Design </tspan></text>
    <text id="é" transform="translate(172 201)" fill="#efefef" font-size="20" font-family="Poppins-Regular, Poppins, sans-serif"><tspan x="0" y="0">é</tspan></text>
    <text id="Tudo" transform="translate(193 228)" fill="#efefef" font-size="20" font-family="Poppins-Medium, Poppins, sans-serif" font-weight="500"><tspan x="0" y="0">Tudo</tspan></text>
    <text id="_Adobe_XD_" data-name="(Adobe XD)" transform="translate(117 271)" fill="#efefef" font-size="18" font-family="Poppins-Light, Poppins, sans-serif" font-weight="300"><tspan x="0" y="0">(Adobe XD)</tspan></text>
    <text id="Modulo_" data-name="Modulo " transform="translate(231 45)" fill="#fff" font-size="20" font-family="Poppins-Medium, Poppins, sans-serif" font-weight="500"><tspan x="0" y="0">Módulo </tspan></text>
    <g transform="matrix(1, 0, 0, 1, 0, 0)" filter="url(#Elipse_3)">
      <circle id="Elipse_3-2" data-name="Elipse 3" cx="19.5" cy="19.5" r="19.5" transform="translate(252 55)" fill="#438ce0"/>
    </g>
    <text id="_4" data-name="4" transform="translate(265 81)" fill="#efefef" font-size="18" font-family="Poppins-SemiBold, Poppins, sans-serif" font-weight="600"><tspan x="0" y="0">4</tspan></text>
  </g>
</svg>
