<svg xmlns="http://www.w3.org/2000/svg" xmlns:xlink="http://www.w3.org/1999/xlink" width="154" height="220" viewBox="0 0 154 220">
  <defs>
    <linearGradient id="linear-gradient" x1="0.523" y1="1" x2="0.5" y2="-0.497" gradientUnits="objectBoundingBox">
      <stop offset="0" stop-color="#f6820c"/>
      <stop offset="1" stop-color="#fcca3f"/>
    </linearGradient>
    <clipPath id="clip-Watch_38_mm_4">
      <rect width="154" height="220"/>
    </clipPath>
  </defs>
  <g id="Watch_38_mm_4" data-name="Watch 38 mm – 4" clip-path="url(#clip-Watch_38_mm_4)">
    <rect width="154" height="220" fill="url(#linear-gradient)"/>
    <text id="Dominando" transform="translate(24 143)" fill="#333" font-size="20" font-family="Poppins-Bold, Poppins, sans-serif" font-weight="700"><tspan x="0" y="0">Dominando</tspan></text>
    <text id="o" transform="translate(34 162)" fill="#333" font-size="16" font-family="Poppins-Regular, Poppins, sans-serif"><tspan x="0" y="0">o</tspan></text>
    <text id="Firebase_" data-name="Firebase " transform="translate(56 166)" fill="#efefef" font-size="20" font-family="Poppins-Medium, Poppins, sans-serif" font-weight="500"><tspan x="0" y="0">Firebase </tspan></text>
    <g id="firebase" transform="translate(67.959 8.493)">
      <path id="Caminho_27" data-name="Caminho 27" d="M0,87.583l.657-.92L31.73,27.7l.066-.624L18.1,1.349a2.542,2.542,0,0,0-4.756.8Z" fill="#ffc24a"/>
      <path id="Caminho_28" data-name="Caminho 28" d="M1.253,87.781l.5-.969L32.5,28.468,18.834,2.634a2.308,2.308,0,0,0-4.392.8Z" transform="translate(-0.865 -0.899)" fill="#ffa712"/>
      <path id="Caminho_29" data-name="Caminho 29" d="M1.253,87.781l.5-.969L32.5,28.468,18.834,2.634a2.308,2.308,0,0,0-4.392.8Z" transform="translate(-0.865 -0.899)"/>
      <path id="Caminho_30" data-name="Caminho 30" d="M112.5,80.531l10.2-10.445L112.5,50.61a2.628,2.628,0,0,0-4.631,0L102.42,61v.885L112.5,80.531Z" transform="translate(-70.723 -33.991)" fill="#f4bd62"/>
      <path id="Caminho_31" data-name="Caminho 31" d="M112.543,80.975l9.916-10.155L112.543,51.94c-.941-1.792-3.229-1.98-4.16-.183L102.9,62.313l-.164.54Z" transform="translate(-70.943 -34.87)" fill="#ffa50e"/>
      <path id="Caminho_32" data-name="Caminho 32" d="M112.543,80.975l9.916-10.155L112.543,51.94c-.941-1.792-3.229-1.98-4.16-.183L102.9,62.313l-.164.54Z" transform="translate(-70.943 -34.87)"/>
      <path id="Caminho_33" data-name="Caminho 33" d="M0,147.731l.3-.3,1.082-.439,39.762-39.614.5-1.371L31.726,87.1Z" transform="translate(0 -60.147)" fill="#f6820c"/>
      <path id="Caminho_34" data-name="Caminho 34" d="M43.056,156.953l35.985-20.069L68.765,73.6A2.459,2.459,0,0,0,64.6,72.253L0,136.975l35.779,19.977a7.467,7.467,0,0,0,7.277,0" transform="translate(0 -49.391)" fill="#fde068"/>
      <path id="Caminho_35" data-name="Caminho 35" d="M79.609,137.389l-10.2-62.807c-.319-1.965-2.339-2.778-3.746-1.369L1.29,137.525,36.676,157.3a7.41,7.41,0,0,0,7.222,0L79.61,137.389Z" transform="translate(-0.891 -50.065)" fill="#fcca3f"/>
      <path id="Caminho_36" data-name="Caminho 36" d="M43.056,300.972a7.467,7.467,0,0,1-7.277,0L.289,281.281l-.288.3L35.78,301.562a7.467,7.467,0,0,0,7.277,0l35.985-20.069-.088-.542-35.9,20.02Z" transform="translate(-0.001 -194.002)" fill="#eeab37"/>
    </g>
    <text id="_MongoDB_" data-name="(MongoDB)" transform="translate(36 194)" fill="#efefef" font-size="16" font-family="Poppins-Light, Poppins, sans-serif" font-weight="300"><tspan x="0" y="0">(MongoDB)</tspan></text>
  </g>
</svg>
