<svg xmlns="http://www.w3.org/2000/svg" xmlns:xlink="http://www.w3.org/1999/xlink" width="335" height="300" viewBox="0 0 335 300">
  <defs>
    <filter id="Elipse_2" x="233" y="49" width="68" height="68" filterUnits="userSpaceOnUse">
      <feOffset dy="3" input="SourceAlpha"/>
      <feGaussianBlur stdDeviation="3" result="blur"/>
      <feFlood flood-opacity="0.161"/>
      <feComposite operator="in" in2="blur"/>
      <feComposite in="SourceGraphic"/>
    </filter>
    <clipPath id="clip-Watch_38_mm_7">
      <rect width="335" height="300"/>
    </clipPath>
  </defs>
  <g id="Watch_38_mm_7" data-name="Watch 38 mm – 7" clip-path="url(#clip-Watch_38_mm_7)">
    <rect width="335" height="300" fill="#e7d035"/>
    <g id="javascript" transform="translate(23 23.952)">
      <path id="Caminho_2" data-name="Caminho 2" d="M0,0H119.044V119.044H0Z" fill="#f0db4f"/>
      <path id="Caminho_3" data-name="Caminho 3" d="M354.512,513.885c-.871-5.432-4.413-9.992-14.9-14.247-3.644-1.675-7.706-2.874-8.917-5.635a6.147,6.147,0,0,1-.215-3.485c.781-3.157,4.549-4.142,7.536-3.236a8.292,8.292,0,0,1,4.843,4.492c5.137-3.327,5.126-3.3,8.713-5.59a22.205,22.205,0,0,0-2.874-3.847c-3.089-3.451-7.3-5.228-14.032-5.092-1.166.147-2.342.305-3.508.453a15.913,15.913,0,0,0-8.442,4.979c-5.635,6.393-4.028,17.585,2.829,22.191,6.756,5.07,16.68,6.224,17.947,10.965,1.233,5.805-4.266,7.683-9.732,7.016-4.029-.837-6.269-2.885-8.691-6.608-4.458,2.58-4.458,2.58-9.041,5.217,1.086,2.376,2.229,3.451,4.051,5.511,8.623,8.747,30.2,8.317,34.073-4.923A16.346,16.346,0,0,0,354.512,513.885Zm-44.585-35.94H298.793c0,9.619-.045,19.169-.045,28.788,0,6.122.317,11.735-.679,13.455-1.629,3.383-5.85,2.965-7.774,2.308a9.557,9.557,0,0,1-4.108-4.266,5.727,5.727,0,0,0-.634-1.018q-4.532,2.767-9.053,5.545a17.892,17.892,0,0,0,6.563,7.514c4.244,2.546,9.947,3.327,15.91,1.958a14.058,14.058,0,0,0,8.985-7.039c2.535-4.673,1.992-10.331,1.969-16.589C309.984,498.394,309.928,488.187,309.928,477.946Z" transform="translate(-245.211 -423.233)" fill="#323330"/>
    </g>
    <text id="Dominando_o" data-name="Dominando o" transform="translate(162 201)" fill="#141414" font-size="22" font-family="Poppins-Light, Poppins, sans-serif" font-weight="300"><tspan x="0" y="0">Dominando o</tspan></text>
    <text id="Javascript-2" data-name="Javascript" transform="translate(178 236)" fill="#141414" font-size="24" font-family="Poppins-SemiBold, Poppins, sans-serif" font-weight="600"><tspan x="0" y="0">Javascript</tspan></text>
    <text id="ES6" transform="translate(269 271)" fill="#141414" font-size="24" font-family="Poppins-Medium, Poppins" font-weight="500"><tspan x="0" y="0">ES6</tspan></text>
    <text id="Modulo_" data-name="Modulo " transform="translate(222 47)" fill="#464646" font-size="22" font-family="Poppins-Medium, Poppins, sans-serif" font-weight="500"><tspan x="0" y="0">Modulo </tspan></text>
    <g transform="matrix(1, 0, 0, 1, 0, 0)" filter="url(#Elipse_2)">
      <circle id="Elipse_2-2" data-name="Elipse 2" cx="25" cy="25" r="25" transform="translate(242 55)" fill="#438ce0"/>
    </g>
    <text id="_2" data-name="2" transform="translate(262 87)" fill="#efefef" font-size="20" font-family="Poppins-SemiBold, Poppins, sans-serif" font-weight="600"><tspan x="0" y="0">2</tspan></text>
  </g>
</svg>
