<svg xmlns="http://www.w3.org/2000/svg" xmlns:xlink="http://www.w3.org/1999/xlink" width="335" height="300" viewBox="0 0 335 300">
  <defs>
    <linearGradient id="linear-gradient" x1="0.523" y1="1" x2="0.5" y2="-0.497" gradientUnits="objectBoundingBox">
      <stop offset="0" stop-color="#539f44"/>
      <stop offset="1" stop-color="#efefef"/>
    </linearGradient>
    <linearGradient id="linear-gradient-2" x1="0.682" y1="0.175" x2="0.278" y2="0.898" gradientUnits="objectBoundingBox">
      <stop offset="0" stop-color="#41873f"/>
      <stop offset="0.329" stop-color="#418b3d"/>
      <stop offset="0.635" stop-color="#419637"/>
      <stop offset="0.932" stop-color="#3fa92d"/>
      <stop offset="1" stop-color="#3fae2a"/>
    </linearGradient>
    <linearGradient id="linear-gradient-3" x1="0.433" y1="0.552" x2="1.592" y2="-0.183" gradientUnits="objectBoundingBox">
      <stop offset="0.138" stop-color="#41873f"/>
      <stop offset="0.403" stop-color="#54a044"/>
      <stop offset="0.714" stop-color="#66b848"/>
      <stop offset="0.908" stop-color="#6cc04a"/>
    </linearGradient>
    <linearGradient id="linear-gradient-4" x1="-44.138" y1="0.134" x2="53.279" y2="0.134" gradientUnits="objectBoundingBox">
      <stop offset="0.092" stop-color="#6cc04a"/>
      <stop offset="0.286" stop-color="#66b848"/>
      <stop offset="0.597" stop-color="#54a044"/>
      <stop offset="0.862" stop-color="#41873f"/>
    </linearGradient>
    <linearGradient id="linear-gradient-5" x1="-0.044" y1="0.5" x2="1.015" y2="0.5" xlink:href="#linear-gradient-4"/>
    <linearGradient id="linear-gradient-6" x1="-97.138" y1="0.362" x2="0.279" y2="0.362" xlink:href="#linear-gradient-4"/>
    <linearGradient id="linear-gradient-7" x1="-1.039" y1="0.503" x2="1.008" y2="0.503" xlink:href="#linear-gradient-4"/>
    <linearGradient id="linear-gradient-8" x1="1.306" y1="-2.111" x2="0.044" y2="2.016" xlink:href="#linear-gradient-2"/>
    <filter id="Elipse_4" x="233" y="49" width="68" height="68" filterUnits="userSpaceOnUse">
      <feOffset dy="3" input="SourceAlpha"/>
      <feGaussianBlur stdDeviation="3" result="blur"/>
      <feFlood flood-opacity="0.161"/>
      <feComposite operator="in" in2="blur"/>
      <feComposite in="SourceGraphic"/>
    </filter>
    <clipPath id="clip-Watch_38_mm_3">
      <rect width="335" height="300"/>
    </clipPath>
  </defs>
  <g id="Watch_38_mm_3" data-name="Watch 38 mm – 3" clip-path="url(#clip-Watch_38_mm_3)">
    <rect width="335" height="300" fill="url(#linear-gradient)"/>
    <text id="Criando_API" data-name="Criando API" transform="translate(86 177)" fill="#333" font-size="24" font-family="Poppins-SemiBold, Poppins, sans-serif" font-weight="600"><tspan x="0" y="0">Criando API</tspan></text>
    <text id="com" transform="translate(86 201)" fill="#333" font-size="20" font-family="Poppins-Regular, Poppins, sans-serif"><tspan x="0" y="0">com</tspan></text>
    <text id="Nodejs_" data-name="Nodejs " transform="translate(132 222)" fill="#333" font-size="24" font-family="Poppins-Medium, Poppins, sans-serif" font-weight="500"><tspan x="0" y="0">Nodejs </tspan></text>
    <g id="nodejs" transform="translate(23.769 24)">
      <path id="Caminho_7" data-name="Caminho 7" d="M214.912,227.008a3.2,3.2,0,0,1-1.532-.4l-4.853-2.882c-.73-.4-.365-.547-.146-.62a8.85,8.85,0,0,0,2.189-.985.335.335,0,0,1,.365.036l3.722,2.226a.464.464,0,0,0,.438,0l14.559-8.429a.42.42,0,0,0,.219-.4V198.73a.42.42,0,0,0-.219-.4l-14.559-8.392a.462.462,0,0,0-.438,0L200.1,198.328a.458.458,0,0,0-.219.4v16.821a.459.459,0,0,0,.219.4l3.977,2.3c2.153,1.095,3.5-.182,3.5-1.46v-16.6a.444.444,0,0,1,.438-.438h1.861a.444.444,0,0,1,.438.438v16.6c0,2.882-1.569,4.561-4.306,4.561a6.258,6.258,0,0,1-3.357-.912l-3.831-2.189a3.079,3.079,0,0,1-1.532-2.664V198.766a3.079,3.079,0,0,1,1.532-2.664l14.559-8.429a3.257,3.257,0,0,1,3.065,0L231,196.1a3.08,3.08,0,0,1,1.533,2.664v16.821A3.08,3.08,0,0,1,231,218.251l-14.559,8.429a3.732,3.732,0,0,1-1.533.328Zm4.488-11.567c-6.385,0-7.7-2.919-7.7-5.4a.444.444,0,0,1,.438-.438h1.9a.375.375,0,0,1,.4.365c.292,1.934,1.131,2.882,5,2.882,3.065,0,4.379-.693,4.379-2.335,0-.949-.365-1.642-5.145-2.116-3.977-.4-6.459-1.277-6.459-4.452,0-2.956,2.482-4.707,6.641-4.707,4.67,0,6.969,1.606,7.261,5.108a.589.589,0,0,1-.11.329.451.451,0,0,1-.292.146h-1.9a.427.427,0,0,1-.4-.328c-.438-2.007-1.569-2.664-4.561-2.664-3.357,0-3.759,1.168-3.759,2.043,0,1.058.475,1.387,5,1.97,4.488.584,6.6,1.423,6.6,4.561C226.661,213.617,224.034,215.442,219.4,215.442Z" transform="translate(-134.843 -128.161)" fill="#539e43"/>
      <path id="Caminho_8" data-name="Caminho 8" d="M34.9,33.059a1.857,1.857,0,0,0-.949-1.606l-15.471-8.9a2.247,2.247,0,0,0-.839-.256H17.49a1.734,1.734,0,0,0-.839.256L1.18,31.453a1.856,1.856,0,0,0-.949,1.606L.268,57a.907.907,0,0,0,.474.8.828.828,0,0,0,.912,0l9.2-5.254a1.857,1.857,0,0,0,.949-1.605v-11.2a1.856,1.856,0,0,1,.949-1.605l3.9-2.262a1.768,1.768,0,0,1,.949-.256,1.569,1.569,0,0,1,.912.256l3.9,2.262a1.856,1.856,0,0,1,.949,1.605v11.2a1.857,1.857,0,0,0,.949,1.605l9.2,5.254a.891.891,0,0,0,.949,0,.907.907,0,0,0,.475-.8L34.9,33.059ZM109.259.109a1,1,0,0,0-.912,0,.951.951,0,0,0-.474.8V24.63a.657.657,0,0,1-.985.584l-3.868-2.226a1.881,1.881,0,0,0-1.861,0l-15.471,8.94a1.857,1.857,0,0,0-.949,1.605V51.376a1.857,1.857,0,0,0,.949,1.606l15.471,8.94a1.881,1.881,0,0,0,1.861,0l15.471-8.94a1.857,1.857,0,0,0,.949-1.606V6.9a1.872,1.872,0,0,0-.949-1.642L109.26.109ZM107.837,45.5a.419.419,0,0,1-.219.4l-5.291,3.065a.541.541,0,0,1-.475,0L96.561,45.9a.457.457,0,0,1-.219-.4v-6.13a.419.419,0,0,1,.219-.4l5.291-3.065a.541.541,0,0,1,.475,0l5.291,3.065a.457.457,0,0,1,.219.4V45.5Zm52.909-6.276a1.822,1.822,0,0,0,.912-1.606V33.278a1.9,1.9,0,0,0-.912-1.605l-15.362-8.9a1.881,1.881,0,0,0-1.861,0l-15.471,8.939a1.856,1.856,0,0,0-.949,1.606V51.157a1.856,1.856,0,0,0,.949,1.605l15.362,8.757a1.813,1.813,0,0,0,1.825,0l9.3-5.181a.916.916,0,0,0,0-1.606L139,45.793a.951.951,0,0,1-.474-.8V39.408a.907.907,0,0,1,.474-.8l4.853-2.773a.891.891,0,0,1,.949,0l4.853,2.773a.951.951,0,0,1,.475.8v4.379a.907.907,0,0,0,.474.8.89.89,0,0,0,.949,0l9.2-5.364Z" transform="translate(0 0)" fill="#333"/>
      <path id="Caminho_9" data-name="Caminho 9" d="M449.491,121.468a.331.331,0,0,1,.365,0l2.956,1.715a.382.382,0,0,1,.183.328v3.43a.383.383,0,0,1-.183.328l-2.956,1.715a.331.331,0,0,1-.365,0l-2.956-1.715a.383.383,0,0,1-.183-.328v-3.43a.382.382,0,0,1,.183-.328Z" transform="translate(-305.275 -83.081)" fill="#539e43"/>
      <g id="Grupo_5" data-name="Grupo 5" transform="translate(42.485 19.594)">
        <path id="Caminho_10" data-name="Caminho 10" d="M18.6,1.316a1.881,1.881,0,0,0-1.861,0L1.374,10.182a1.822,1.822,0,0,0-.912,1.605v17.77a1.9,1.9,0,0,0,.912,1.605L16.736,40.03a1.881,1.881,0,0,0,1.861,0l15.362-8.867a1.823,1.823,0,0,0,.912-1.605V11.788a1.9,1.9,0,0,0-.912-1.605Z" transform="translate(-0.316 1.932)" fill="url(#linear-gradient-2)"/>
        <g id="Grupo_3" data-name="Grupo 3" transform="translate(0 2.995)">
          <path id="Caminho_11" data-name="Caminho 11" d="M16.383,1.3.985,10.169A1.893,1.893,0,0,0,0,11.775v17.77a1.758,1.758,0,0,0,.474,1.168L17.77,1.084a2.085,2.085,0,0,0-1.387.219Zm1.5,38.9a2.243,2.243,0,0,0,.438-.182l15.4-8.867a1.856,1.856,0,0,0,.949-1.605V11.775a1.859,1.859,0,0,0-.547-1.277L17.88,40.2Z" transform="translate(0 -1.051)" fill="none"/>
          <path id="Caminho_12" data-name="Caminho 12" d="M34.707,10.321,19.272,1.454a2.534,2.534,0,0,0-.475-.182L1.5,30.9a1.92,1.92,0,0,0,.511.438l15.435,8.867a1.778,1.778,0,0,0,1.423.182l16.238-29.7a1.915,1.915,0,0,0-.4-.365Z" transform="translate(-1.028 -1.202)" fill="url(#linear-gradient-3)"/>
        </g>
        <g id="Grupo_4" data-name="Grupo 4" transform="translate(0 0)">
          <path id="Caminho_13" data-name="Caminho 13" d="M34.664,29.618V11.848a1.892,1.892,0,0,0-.985-1.605L18.244,1.376a1.612,1.612,0,0,0-.583-.219L34.555,30.02a.736.736,0,0,0,.11-.4ZM.985,10.242A1.893,1.893,0,0,0,0,11.848v17.77a1.973,1.973,0,0,0,.985,1.605L16.42,40.09a1.718,1.718,0,0,0,1.2.219L1.095,10.206l-.109.037Z" transform="translate(0 1.872)" fill="none"/>
          <path id="Caminho_14" data-name="Caminho 14" d="M49.917.809,49.7.919h.292Z" transform="translate(-34.008 -0.809)" fill-rule="evenodd" fill="url(#linear-gradient-4)"/>
          <path id="Caminho_15" data-name="Caminho 15" d="M36.009,40.4a2.076,2.076,0,0,0,.912-1.168L19.99,10.33a1.853,1.853,0,0,0-1.313.219L3.351,19.379,19.88,49.519a2.544,2.544,0,0,0,.693-.219l15.435-8.9Z" transform="translate(-2.293 -7.301)" fill-rule="evenodd" fill="url(#linear-gradient-5)"/>
          <path id="Caminho_16" data-name="Caminho 16" d="M111.063,104.316l-.11-.182v.255l.109-.073Z" transform="translate(-75.924 -71.513)" fill-rule="evenodd" fill="url(#linear-gradient-6)"/>
          <path id="Caminho_17" data-name="Caminho 17" d="M71.915,103.026l-15.4,8.867a2.2,2.2,0,0,1-.693.219l.292.547,17.077-9.888v-.219l-.438-.73A1.7,1.7,0,0,1,71.915,103.026Z" transform="translate(-38.199 -69.931)" fill-rule="evenodd" fill="url(#linear-gradient-7)"/>
          <path id="Caminho_18" data-name="Caminho 18" d="M71.915,103.026l-15.4,8.867a2.2,2.2,0,0,1-.693.219l.292.547,17.077-9.888v-.219l-.438-.73A1.7,1.7,0,0,1,71.915,103.026Z" transform="translate(-38.199 -69.931)" fill-rule="evenodd" fill="url(#linear-gradient-8)"/>
        </g>
      </g>
    </g>
    <text id="_MySql_e_MongoDB_" data-name="(MySql e MongoDB)" transform="translate(72 271)" fill="#efefef" font-size="20" font-family="Poppins-Light, Poppins, sans-serif" font-weight="300"><tspan x="0" y="0">(MySql e MongoDB)</tspan></text>
    <text id="Modulo_" data-name="Modulo " transform="translate(222 47)" fill="#fff" font-size="22" font-family="Poppins-Medium, Poppins, sans-serif" font-weight="500"><tspan x="0" y="0">Modulo </tspan></text>
    <g transform="matrix(1, 0, 0, 1, 0, 0)" filter="url(#Elipse_4)">
      <circle id="Elipse_4-2" data-name="Elipse 4" cx="25" cy="25" r="25" transform="translate(242 55)" fill="#438ce0"/>
    </g>
    <text id="_5" data-name="5" transform="translate(261 87)" fill="#efefef" font-size="20" font-family="Poppins-SemiBold, Poppins, sans-serif" font-weight="600"><tspan x="0" y="0">5</tspan></text>
  </g>
</svg>
