<svg xmlns="http://www.w3.org/2000/svg" xmlns:xlink="http://www.w3.org/1999/xlink" width="335" height="300" viewBox="0 0 335 300">
  <defs>
    <linearGradient id="linear-gradient" x1="0.5" x2="0.5" y2="1" gradientUnits="objectBoundingBox">
      <stop offset="0" stop-color="#0a7fcb"/>
      <stop offset="1" stop-color="#004978"/>
    </linearGradient>
    <filter id="Elipse_3" x="233" y="49" width="68" height="68" filterUnits="userSpaceOnUse">
      <feOffset dy="3" input="SourceAlpha"/>
      <feGaussianBlur stdDeviation="3" result="blur"/>
      <feFlood flood-opacity="0.161"/>
      <feComposite operator="in" in2="blur"/>
      <feComposite in="SourceGraphic"/>
    </filter>
    <clipPath id="clip-Watch_38_mm_1">
      <rect width="335" height="300"/>
    </clipPath>
  </defs>
  <g id="Watch_38_mm_1" data-name="Watch 38 mm – 1" clip-path="url(#clip-Watch_38_mm_1)">
    <rect width="335" height="300" fill="url(#linear-gradient)"/>
    <g id="react" transform="translate(-151.7 -54)">
      <path id="Caminho_1" data-name="Caminho 1" d="M304,135.141c0-8.5-10.644-16.554-26.962-21.549,3.766-16.632,2.092-29.865-5.283-34.1a11.466,11.466,0,0,0-5.858-1.464v5.832a6.056,6.056,0,0,1,2.981.68c3.557,2.04,5.1,9.807,3.9,19.8-.288,2.458-.758,5.047-1.334,7.689a126.735,126.735,0,0,0-16.606-2.851A127.567,127.567,0,0,0,243.956,96.1c8.525-7.924,16.528-12.265,21.967-12.265V78c-7.192,0-16.606,5.126-26.125,14.017C230.278,83.178,220.864,78.1,213.672,78.1v5.832c5.413,0,13.442,4.315,21.967,12.187a123.507,123.507,0,0,0-10.8,13.05,122.124,122.124,0,0,0-16.632,2.877c-.6-2.615-1.046-5.152-1.36-7.584-1.229-9.99.288-17.757,3.818-19.823a5.82,5.82,0,0,1,3.007-.68V78.131a11.66,11.66,0,0,0-5.91,1.464c-7.349,4.237-9,17.443-5.2,34.023-16.266,5.021-26.858,13.05-26.858,21.523,0,8.5,10.644,16.554,26.962,21.549-3.766,16.632-2.092,29.865,5.283,34.1a11.5,11.5,0,0,0,5.884,1.464c7.192,0,16.606-5.126,26.125-14.017,9.519,8.839,18.934,13.913,26.125,13.913a11.66,11.66,0,0,0,5.91-1.465c7.349-4.237,9-17.443,5.2-34.023C293.408,151.669,304,143.614,304,135.141ZM269.95,117.7c-.968,3.374-2.171,6.852-3.53,10.33-1.072-2.092-2.2-4.184-3.426-6.276-1.2-2.092-2.484-4.132-3.766-6.119,3.713.549,7.3,1.229,10.722,2.066Zm-11.977,27.851c-2.04,3.53-4.132,6.878-6.3,9.99-3.9.34-7.845.523-11.82.523-3.949,0-7.9-.183-11.768-.5q-3.256-4.668-6.329-9.938-2.981-5.139-5.44-10.408c1.621-3.5,3.452-7.009,5.413-10.435,2.04-3.53,4.132-6.878,6.3-9.99,3.9-.34,7.845-.523,11.82-.523,3.949,0,7.9.183,11.768.5q3.256,4.668,6.329,9.938,2.981,5.139,5.439,10.408C261.739,138.619,259.934,142.124,257.973,145.549Zm8.447-3.4c1.412,3.5,2.615,7.009,3.609,10.408-3.426.837-7.035,1.543-10.774,2.092,1.281-2.014,2.563-4.08,3.766-6.2C264.223,146.36,265.348,144.242,266.42,142.15Zm-26.518,27.9a107.811,107.811,0,0,1-7.27-8.369c2.354.1,4.76.183,7.192.183,2.458,0,4.89-.052,7.27-.183A102.079,102.079,0,0,1,239.9,170.054Zm-19.457-15.4c-3.714-.549-7.3-1.229-10.722-2.066.968-3.374,2.171-6.852,3.53-10.33,1.072,2.092,2.2,4.184,3.426,6.276S219.164,152.663,220.445,154.65Zm19.326-54.421a107.808,107.808,0,0,1,7.27,8.368c-2.354-.1-4.76-.183-7.192-.183-2.458,0-4.89.052-7.27.183A102.065,102.065,0,0,1,239.771,100.229Zm-19.352,15.4c-1.281,2.014-2.563,4.08-3.766,6.2-1.2,2.092-2.328,4.184-3.4,6.276-1.412-3.5-2.615-7.009-3.609-10.408,3.426-.811,7.035-1.517,10.774-2.066Zm-23.667,32.742c-9.258-3.949-15.246-9.127-15.246-13.233s5.989-9.31,15.246-13.233c2.249-.968,4.707-1.831,7.244-2.641a125.605,125.605,0,0,0,5.884,15.926,123.834,123.834,0,0,0-5.806,15.848c-2.589-.811-5.047-1.7-7.322-2.667Zm14.07,37.371c-3.557-2.04-5.1-9.807-3.9-19.8.288-2.458.758-5.047,1.334-7.689a126.734,126.734,0,0,0,16.606,2.851,127.573,127.573,0,0,0,10.879,13.076c-8.525,7.924-16.528,12.265-21.967,12.265a6.241,6.241,0,0,1-2.955-.706Zm62.032-19.927c1.229,9.99-.288,17.757-3.818,19.823a5.82,5.82,0,0,1-3.007.68c-5.413,0-13.442-4.315-21.967-12.187a123.518,123.518,0,0,0,10.8-13.05,122.115,122.115,0,0,0,16.632-2.877A73.213,73.213,0,0,1,272.853,165.817Zm10.068-17.443c-2.249.968-4.707,1.831-7.244,2.641a125.606,125.606,0,0,0-5.884-15.926,123.833,123.833,0,0,0,5.806-15.848c2.589.811,5.047,1.7,7.349,2.667,9.258,3.949,15.246,9.127,15.246,13.233C298.168,139.247,292.179,144.451,282.921,148.374Z" transform="translate(0 0)" fill="#61dafb"/>
      <circle id="Elipse_1" data-name="Elipse 1" cx="11.951" cy="11.951" r="11.951" transform="translate(227.872 123.19)" fill="#61dafb"/>
    </g>
    <text id="React_Native" data-name="React Native" transform="translate(40 210)" fill="#efefef" font-size="24" font-family="Poppins-SemiBold, Poppins, sans-serif" font-weight="600"><tspan x="0" y="0">React Native</tspan></text>
    <text id="_Cross-Plataform_" data-name="(Cross-Plataform)" transform="translate(28 263)" fill="#ece7e7" font-size="20" font-family="Poppins-Light, Poppins, sans-serif" font-weight="300"><tspan x="0" y="0">(Cross-Plataform)</tspan></text>
    <text id="como" transform="translate(92 236)" fill="#61dafb" font-size="18" font-family="Poppins-Regular, Poppins, sans-serif"><tspan x="0" y="0">como</tspan></text>
    <text id="Modulo_" data-name="Modulo " transform="translate(222 47)" fill="#fff" font-size="22" font-family="Poppins-Medium, Poppins, sans-serif" font-weight="500"><tspan x="0" y="0">Modulo </tspan></text>
    <g transform="matrix(1, 0, 0, 1, 0, 0)" filter="url(#Elipse_3)">
      <circle id="Elipse_3-2" data-name="Elipse 3" cx="25" cy="25" r="25" transform="translate(242 55)" fill="#438ce0"/>
    </g>
    <text id="_3" data-name="3" transform="translate(261 87)" fill="#efefef" font-size="20" font-family="Poppins-SemiBold, Poppins, sans-serif" font-weight="600"><tspan x="0" y="0">3</tspan></text>
  </g>
</svg>
