<svg xmlns="http://www.w3.org/2000/svg" xmlns:xlink="http://www.w3.org/1999/xlink" width="154" height="220" viewBox="0 0 154 220">
  <defs>
    <linearGradient id="linear-gradient" x1="0.5" x2="0.5" y2="1" gradientUnits="objectBoundingBox">
      <stop offset="0" stop-color="#0a7fcb"/>
      <stop offset="1" stop-color="#004978"/>
    </linearGradient>
    <clipPath id="clip-Watch_38_mm_1">
      <rect width="154" height="220"/>
    </clipPath>
  </defs>
  <g id="Watch_38_mm_1" data-name="Watch 38 mm – 1" clip-path="url(#clip-Watch_38_mm_1)">
    <rect width="154" height="220" fill="url(#linear-gradient)"/>
    <g id="react" transform="translate(-186.7 -84.915)">
      <path id="Caminho_1" data-name="Caminho 1" d="M319.337,141.972c0-9.515-11.916-18.533-30.185-24.125,4.216-18.621,2.342-33.435-5.914-38.178a12.837,12.837,0,0,0-6.558-1.64v6.529a6.779,6.779,0,0,1,3.338.761C284,87.6,285.726,96.3,284.379,107.483c-.322,2.752-.849,5.651-1.493,8.608a141.888,141.888,0,0,0-18.591-3.191,142.82,142.82,0,0,0-12.18-14.639c9.545-8.871,18.5-13.731,24.593-13.731V78c-8.051,0-18.591,5.738-29.249,15.693-10.657-9.9-21.2-15.576-29.249-15.576v6.529c6.061,0,15.049,4.831,24.593,13.643a138.275,138.275,0,0,0-12.092,14.61,136.723,136.723,0,0,0-18.621,3.221c-.673-2.928-1.171-5.768-1.522-8.491-1.376-11.184.322-19.88,4.275-22.193a6.516,6.516,0,0,1,3.367-.761V78.146a13.054,13.054,0,0,0-6.617,1.64c-8.227,4.743-10.072,19.528-5.826,38.09-18.211,5.621-30.068,14.61-30.068,24.1,0,9.515,11.916,18.533,30.185,24.125-4.216,18.621-2.342,33.435,5.914,38.178a12.87,12.87,0,0,0,6.588,1.64c8.051,0,18.591-5.738,29.248-15.693,10.657,9.9,21.2,15.576,29.249,15.576a13.054,13.054,0,0,0,6.617-1.64c8.227-4.743,10.072-19.528,5.826-38.09,18.152-5.592,30.01-14.61,30.01-24.1Zm-38.12-19.528c-1.083,3.777-2.43,7.671-3.953,11.565-1.2-2.342-2.459-4.684-3.835-7.027-1.347-2.342-2.781-4.626-4.216-6.851,4.157.615,8.169,1.376,12,2.313Zm-13.409,31.181c-2.284,3.952-4.626,7.7-7.056,11.184-4.362.381-8.783.586-13.234.586-4.421,0-8.842-.2-13.175-.556q-3.645-5.226-7.085-11.126-3.338-5.753-6.09-11.653c1.815-3.923,3.865-7.846,6.061-11.682,2.284-3.952,4.626-7.7,7.056-11.184,4.362-.381,8.783-.586,13.234-.586,4.421,0,8.842.2,13.175.556q3.645,5.226,7.085,11.126,3.338,5.753,6.09,11.653C272.024,145.866,270,149.789,267.808,153.625Zm9.457-3.806c1.581,3.923,2.928,7.846,4.04,11.653-3.835.937-7.876,1.727-12.062,2.342,1.435-2.254,2.869-4.567,4.216-6.939C274.805,154.532,276.064,152.161,277.265,149.818Zm-29.688,31.239a120.7,120.7,0,0,1-8.139-9.369c2.635.117,5.329.2,8.051.2,2.752,0,5.475-.059,8.139-.2A114.282,114.282,0,0,1,247.577,181.058Zm-21.783-17.245c-4.157-.615-8.168-1.376-12-2.313,1.083-3.777,2.43-7.671,3.952-11.565,1.2,2.342,2.459,4.684,3.835,7.027S224.36,161.588,225.794,163.813Zm21.636-60.927a120.7,120.7,0,0,1,8.139,9.369c-2.635-.117-5.329-.2-8.051-.2-2.752,0-5.475.059-8.139.2A114.276,114.276,0,0,1,247.431,102.886Zm-21.666,17.245c-1.435,2.254-2.869,4.567-4.216,6.939-1.347,2.342-2.606,4.684-3.806,7.027-1.581-3.923-2.928-7.846-4.04-11.653,3.835-.908,7.876-1.7,12.062-2.313Zm-26.5,36.656C188.9,152.366,182.2,146.569,182.2,141.972s6.7-10.423,17.069-14.815c2.518-1.083,5.27-2.049,8.11-2.957a140.622,140.622,0,0,0,6.587,17.83,138.636,138.636,0,0,0-6.5,17.742c-2.9-.908-5.651-1.9-8.2-2.986Zm15.751,41.838c-3.982-2.284-5.709-10.979-4.362-22.163.322-2.752.849-5.651,1.493-8.608a141.887,141.887,0,0,0,18.591,3.191,142.822,142.822,0,0,0,12.18,14.639c-9.545,8.871-18.5,13.731-24.593,13.731a6.987,6.987,0,0,1-3.308-.79Zm69.447-22.31c1.376,11.184-.322,19.88-4.275,22.193a6.515,6.515,0,0,1-3.367.761c-6.06,0-15.049-4.831-24.593-13.643a138.287,138.287,0,0,0,12.092-14.61,136.714,136.714,0,0,0,18.621-3.221A81.967,81.967,0,0,1,284.467,176.315Zm11.272-19.528c-2.518,1.083-5.27,2.049-8.11,2.957a140.614,140.614,0,0,0-6.588-17.83,138.64,138.64,0,0,0,6.5-17.742c2.9.908,5.651,1.9,8.227,2.986,10.364,4.421,17.069,10.218,17.069,14.815C312.808,146.569,306.1,152.395,295.739,156.787Z" fill="#61dafb"/>
      <circle id="Elipse_1" data-name="Elipse 1" cx="13.38" cy="13.38" r="13.38" transform="translate(234.109 128.592)" fill="#61dafb"/>
    </g>
    <text id="React_Native" data-name="React Native" transform="translate(12 142)" fill="#efefef" font-size="20" font-family="Poppins-Bold, Poppins" font-weight="700"><tspan x="0" y="0">React Native</tspan></text>
    <text id="_Cross-Plataform_" data-name="(Cross-Plataform)" transform="translate(5 183)" fill="#ece7e7" font-size="16" font-family="Poppins-Light, Poppins" font-weight="300"><tspan x="0" y="0">(Cross-Plataform)</tspan></text>
    <text id="como" transform="translate(50 163)" fill="#61dafb" font-size="16" font-family="Poppins-Regular, Poppins"><tspan x="0" y="0">como</tspan></text>
  </g>
</svg>
