<svg xmlns="http://www.w3.org/2000/svg" xmlns:xlink="http://www.w3.org/1999/xlink" width="412" height="735" viewBox="0 0 412 735">
  <defs>
    <filter id="Retângulo_33" x="31" y="294" width="350" height="68" filterUnits="userSpaceOnUse">
      <feOffset dy="3" input="SourceAlpha"/>
      <feGaussianBlur stdDeviation="3" result="blur"/>
      <feFlood flood-opacity="0.161"/>
      <feComposite operator="in" in2="blur"/>
      <feComposite in="SourceGraphic"/>
    </filter>
    <filter id="Retângulo_11" x="134" y="44" width="142" height="77" filterUnits="userSpaceOnUse">
      <feOffset dy="3" input="SourceAlpha"/>
      <feGaussianBlur stdDeviation="3" result="blur-2"/>
      <feFlood flood-opacity="0.161"/>
      <feComposite operator="in" in2="blur-2"/>
      <feComposite in="SourceGraphic"/>
    </filter>
    <filter id="Retângulo_34" x="31" y="455" width="350" height="68" filterUnits="userSpaceOnUse">
      <feOffset dy="3" input="SourceAlpha"/>
      <feGaussianBlur stdDeviation="3" result="blur-3"/>
      <feFlood flood-opacity="0.161"/>
      <feComposite operator="in" in2="blur-3"/>
      <feComposite in="SourceGraphic"/>
    </filter>
    <filter id="Retângulo_14" x="31" y="209" width="350" height="68" filterUnits="userSpaceOnUse">
      <feOffset dy="3" input="SourceAlpha"/>
      <feGaussianBlur stdDeviation="3" result="blur-4"/>
      <feFlood flood-opacity="0.161"/>
      <feComposite operator="in" in2="blur-4"/>
      <feComposite in="SourceGraphic"/>
    </filter>
    <filter id="Icon_ionic-ios-close-circle" x="336.925" y="227" width="32" height="32" filterUnits="userSpaceOnUse">
      <feOffset dy="3" input="SourceAlpha"/>
      <feGaussianBlur stdDeviation="3" result="blur-5"/>
      <feFlood flood-opacity="0.161"/>
      <feComposite operator="in" in2="blur-5"/>
      <feComposite in="SourceGraphic"/>
    </filter>
    <clipPath id="clip-Login">
      <rect width="412" height="735"/>
    </clipPath>
  </defs>
  <g id="Login" clip-path="url(#clip-Login)">
    <rect width="412" height="735" fill="#312c51"/>
    <g transform="matrix(1, 0, 0, 1, 0, 0)" filter="url(#Retângulo_33)">
      <rect id="Retângulo_33-2" data-name="Retângulo 33" width="332" height="50" rx="5" transform="translate(40 300)" fill="#fff" opacity="0.96"/>
    </g>
    <text id="Insira_a_Senha" data-name="Insira a Senha" transform="translate(76 330)" fill="#312c51" font-size="14" font-family="Poppins-Regular, Poppins" opacity="0.38"><tspan x="0" y="0">Insira a Senha</tspan></text>
    <path id="Icon_feather-key" data-name="Icon feather-key" d="M16.3,3,14.9,4.4M9.574,9.727a3.85,3.85,0,1,1-5.445,0,3.85,3.85,0,0,1,5.445,0Zm0,0L12.451,6.85m0,0,2.1,2.1L17,6.5,14.9,4.4m-2.45,2.45L14.9,4.4" transform="translate(47.999 315.7)" fill="none" stroke="#aba9b9" stroke-linecap="round" stroke-linejoin="round" stroke-width="2"/>
    <g id="Grupo_86" data-name="Grupo 86" transform="translate(18 -46.926)">
      <g transform="matrix(1, 0, 0, 1, -18, 46.93)" filter="url(#Retângulo_11)">
        <rect id="Retângulo_11-2" data-name="Retângulo 11" width="124" height="59" rx="9" transform="translate(143 50)" fill="#ffd02a"/>
      </g>
      <text id="KumbON" transform="translate(93 137.926)" fill="#fff" font-size="32" font-family="Poppins-SemiBold, Poppins" font-weight="600"><tspan x="0" y="0">Kumb</tspan><tspan y="0" fill="#312c51">ON</tspan></text>
    </g>
    <text id="Forgot_password_" data-name="Forgot password?" transform="translate(372 384)" fill="#f5f5f5" font-size="12" font-family="Poppins-Regular, Poppins"><tspan x="-116.04" y="0">Esqueceu a senha?</tspan></text>
    <text id="Forgot_password_2" data-name="Forgot password?" transform="translate(305 569)" fill="#f5f5f5" font-size="12" font-family="Poppins-Regular, Poppins"><tspan x="-196.884" y="0">Não tem uma conta? </tspan><tspan y="0" fill="#ffd02a" font-family="Poppins-SemiBold, Poppins" font-weight="600">Registe-se</tspan></text>
    <g id="Grupo_88" data-name="Grupo 88" transform="translate(0 -62)">
      <g transform="matrix(1, 0, 0, 1, 0, 62)" filter="url(#Retângulo_34)">
        <rect id="Retângulo_34-2" data-name="Retângulo 34" width="332" height="50" rx="5" transform="translate(40 461)" fill="#ffd02a" opacity="0.96"/>
      </g>
      <text id="Entrar" transform="translate(178 555)" fill="#312c51" font-size="18" font-family="Poppins-Bold, Poppins" font-weight="700"><tspan x="0" y="0">Entrar</tspan></text>
    </g>
    <text id="Forgot_password_3" data-name="Forgot password?" transform="translate(274 631)" fill="#f6c92b" font-size="12" font-family="Poppins-SemiBold, Poppins" font-weight="600"><tspan x="-136.356" y="0" xml:space="preserve">Usar o  app sem conta</tspan></text>
    <text id="Forgot_password_4" data-name="Forgot password?" transform="translate(257 167)" fill="#f5f5f5" font-size="16" font-family="Poppins-SemiBold, Poppins" font-weight="600"><tspan x="-101.056" y="0">Faça o Login</tspan></text>
    <text id="Forgot_password_5" data-name="Forgot password?" transform="translate(296 720)" fill="#f6c92b" font-size="8" font-family="Poppins-Regular, Poppins"><tspan x="-178.816" y="0">KumbON</tspan><tspan y="0" fill="#f5f5f5">, @2021 todos os direitos reservados</tspan></text>
    <g id="Grupo_110" data-name="Grupo 110">
      <g transform="matrix(1, 0, 0, 1, 0, 0)" filter="url(#Retângulo_14)">
        <rect id="Retângulo_14-2" data-name="Retângulo 14" width="332" height="50" rx="5" transform="translate(40 215)" fill="#fff" opacity="0.96"/>
      </g>
      <text id="mosmmy.jose" transform="translate(76 245)" fill="#312c51" font-size="14" font-family="Poppins-SemiBold, Poppins" font-weight="600" opacity="0.93"><tspan x="0" y="0">mosmmy.jose</tspan></text>
      <g id="Icon_feather-user" data-name="Icon feather-user" transform="translate(45 227.5)">
        <path id="Caminho_57" data-name="Caminho 57" d="M20,27.75V26a3.5,3.5,0,0,0-3.5-3.5h-7A3.5,3.5,0,0,0,6,26v1.75" transform="translate(0 -7.5)" fill="none" stroke="#aba9b9" stroke-linecap="round" stroke-linejoin="round" stroke-width="2"/>
        <path id="Caminho_58" data-name="Caminho 58" d="M19,8a3.5,3.5,0,1,1-3.5-3.5A3.5,3.5,0,0,1,19,8Z" transform="translate(-2.5)" fill="none" stroke="#aba9b9" stroke-linecap="round" stroke-linejoin="round" stroke-width="2"/>
      </g>
      <g transform="matrix(1, 0, 0, 1, 0, 0)" filter="url(#Icon_ionic-ios-close-circle)">
        <path id="Icon_ionic-ios-close-circle-2" data-name="Icon ionic-ios-close-circle" d="M10.375,3.375a7,7,0,1,0,7,7A7,7,0,0,0,10.375,3.375Zm1.774,9.534-1.774-1.774L8.6,12.909a.538.538,0,1,1-.761-.761l1.774-1.774L7.841,8.6A.538.538,0,0,1,8.6,7.841l1.774,1.774,1.774-1.774a.538.538,0,0,1,.761.761l-1.774,1.774,1.774,1.774a.54.54,0,0,1,0,.761A.534.534,0,0,1,12.149,12.909Z" transform="translate(342.55 229.63)" fill="#312c51"/>
      </g>
    </g>
  </g>
</svg>
