<svg xmlns="http://www.w3.org/2000/svg" xmlns:xlink="http://www.w3.org/1999/xlink" width="412" height="735" viewBox="0 0 412 735">
  <defs>
    <filter id="Caminho_14" x="1" y="51" width="70" height="43" filterUnits="userSpaceOnUse">
      <feOffset dy="3" input="SourceAlpha"/>
      <feGaussianBlur stdDeviation="3" result="blur"/>
      <feFlood flood-opacity="0.161"/>
      <feComposite operator="in" in2="blur"/>
      <feComposite in="SourceGraphic"/>
    </filter>
    <filter id="Elipse_1" x="31" y="54" width="36" height="36" filterUnits="userSpaceOnUse">
      <feOffset dy="3" input="SourceAlpha"/>
      <feGaussianBlur stdDeviation="3" result="blur-2"/>
      <feFlood flood-opacity="0.161"/>
      <feComposite operator="in" in2="blur-2"/>
      <feComposite in="SourceGraphic"/>
    </filter>
    <clipPath id="clip-Home_-_Light">
      <rect width="412" height="735"/>
    </clipPath>
  </defs>
  <g id="Home_-_Light" data-name="Home - Light" clip-path="url(#clip-Home_-_Light)">
    <rect width="412" height="735" fill="#e0e8f0"/>
    <g id="Grupo_7" data-name="Grupo 7" transform="translate(-3 26)">
      <g transform="matrix(1, 0, 0, 1, 3, -26)" filter="url(#Caminho_14)">
        <path id="Caminho_14-2" data-name="Caminho 14" d="M12.5,0h27a12.5,12.5,0,0,1,0,25h-27a12.5,12.5,0,0,1,0-25Z" transform="translate(10 57)" fill="#3f4f67"/>
      </g>
      <g transform="matrix(1, 0, 0, 1, 3, -26)" filter="url(#Elipse_1)">
        <circle id="Elipse_1-2" data-name="Elipse 1" cx="9" cy="9" r="9" transform="translate(40 60)" fill="#e0e8f0"/>
      </g>
      <path id="Icon_material-lightbulb-outline" data-name="Icon material-lightbulb-outline" d="M9.415,12.1a.48.48,0,0,0,.479.479H11.81a.48.48,0,0,0,.479-.479v-.479H9.415ZM10.852,3A3.35,3.35,0,0,0,8.937,9.1v1.082a.48.48,0,0,0,.479.479h2.873a.48.48,0,0,0,.479-.479V9.1A3.35,3.35,0,0,0,10.852,3Zm1.365,5.315L11.81,8.6V9.7H9.894V8.6l-.407-.287a2.394,2.394,0,1,1,2.729,0Z" transform="translate(41.148 35.212)" fill="#3f4f67"/>
      <text id="Light" transform="translate(17 47)" fill="#e0e8f0" font-size="10" font-family="Poppins-Regular, Poppins"><tspan x="0" y="0">Light</tspan></text>
    </g>
    <g id="Grupo_14" data-name="Grupo 14" transform="translate(-11 -120)">
      <path id="_09:41" data-name="09:41" d="M12.194,10.052h0l-1.217-.839L13.16,6.174,13.1,6.118a1.855,1.855,0,0,1-.952.224,2.726,2.726,0,0,1-1.407-.406A3.251,3.251,0,0,1,9.639,4.823a3.007,3.007,0,0,1-.427-1.589A3.064,3.064,0,0,1,9.667,1.61,3.37,3.37,0,0,1,10.885.434,3.294,3.294,0,0,1,12.53,0a3.392,3.392,0,0,1,1.75.455,3.165,3.165,0,0,1,1.19,1.21,3.28,3.28,0,0,1,.42,1.61,3.831,3.831,0,0,1-.322,1.561,10.585,10.585,0,0,1-.952,1.66l-2.421,3.555Zm.35-8.61a1.816,1.816,0,0,0-.9.231,1.734,1.734,0,0,0-.91,1.547,1.73,1.73,0,0,0,.252.917,1.807,1.807,0,0,0,.665.643,1.777,1.777,0,0,0,.889.231,1.836,1.836,0,0,0,1.568-.875,1.73,1.73,0,0,0,.252-.917,1.734,1.734,0,0,0-.91-1.547A1.842,1.842,0,0,0,12.544,1.442Zm-8.61,8.582a3.412,3.412,0,0,1-2.072-.665A4.277,4.277,0,0,1,.483,7.553,6.524,6.524,0,0,1,0,5.012,6.562,6.562,0,0,1,.483,2.457,4.188,4.188,0,0,1,1.862.658,3.425,3.425,0,0,1,3.934,0,3.4,3.4,0,0,1,6,.658a4.261,4.261,0,0,1,1.372,1.8,6.562,6.562,0,0,1,.483,2.555,6.524,6.524,0,0,1-.483,2.541A4.291,4.291,0,0,1,5.992,9.359,3.392,3.392,0,0,1,3.934,10.024Zm0-8.568a1.869,1.869,0,0,0-1.26.462,2.953,2.953,0,0,0-.819,1.274,5.417,5.417,0,0,0-.287,1.82,5.356,5.356,0,0,0,.287,1.813A3.025,3.025,0,0,0,2.674,8.1a1.852,1.852,0,0,0,1.26.469A1.859,1.859,0,0,0,5.187,8.1a2.966,2.966,0,0,0,.826-1.274A5.334,5.334,0,0,0,6.3,5.012a5.394,5.394,0,0,0-.287-1.82,2.91,2.91,0,0,0-.826-1.274A1.876,1.876,0,0,0,3.934,1.456ZM18.4,9.884a1.075,1.075,0,0,1-1.078-1.078,1.024,1.024,0,0,1,.315-.756,1.1,1.1,0,0,1,1.526,0,1.024,1.024,0,0,1,.315.756A1.075,1.075,0,0,1,18.4,9.884ZM33.208,9.8h-1.54V2.31L30.1,3.444l-.784-1.191L32.13.224h1.078V9.8Zm-6.287,0h-1.54V7.9H20.9v-1.2L25.256.224h1.666V6.468H28.14V7.9H26.922V9.8ZM25.3,2.506,22.624,6.468h2.758V2.506ZM18.4,4.69a1.075,1.075,0,0,1-1.078-1.078,1.078,1.078,0,1,1,1.841.763A1.047,1.047,0,0,1,18.4,4.69Z" transform="translate(21.7 127.2)" fill="#3f4f67" opacity="0.87"/>
      <g id="Grupo_13" data-name="Grupo 13">
        <rect id="_Background" data-name="⬛ Background" width="412" height="24" transform="translate(11 120)" fill="rgba(0,0,0,0)"/>
        <path id="_Icons" data-name="🧡 Icons" d="M52.023,14h-9V.875h3V0h3V.875h3V14Zm-18,0h-14l14-14V14Zm-25,0h0L0,3.016A14.868,14.868,0,0,1,9.023,0a14.869,14.869,0,0,1,9.023,3.016L9.023,14Z" transform="translate(361 125)" fill="#3f4f67" opacity="0.87"/>
      </g>
    </g>
    <g id="Grupo_12" data-name="Grupo 12" transform="translate(84 128)">
      <text id="_0" data-name="0" transform="translate(280 79)" fill="#3f4f67" font-size="45" font-family="Poppins-Bold, Poppins" font-weight="700"><tspan x="0" y="0">0</tspan></text>
      <text id="_3" data-name="3" transform="translate(253 79)" fill="#3f4f67" font-size="45" font-family="Poppins-Bold, Poppins" font-weight="700"><tspan x="0" y="0">3</tspan></text>
    </g>
    <text id="_24_6" data-name="24 + 6" transform="translate(334 244)" fill="#3f4f67" font-size="20" font-family="Poppins-ExtraLight, Poppins" font-weight="200"><tspan x="0" y="0">24 + 6</tspan></text>
    <g id="Grupo_15" data-name="Grupo 15" transform="translate(0 183)">
      <text id="_2" data-name="2" transform="translate(146.453 290.248)" fill="#3f4f67" font-size="30" font-family="SegoeUI-Bold, Segoe UI" font-weight="700"><tspan x="0" y="0">2</tspan></text>
      <text id="_3-2" data-name="3" transform="translate(249.036 290.248)" fill="#3f4f67" font-size="30" font-family="SegoeUI-Bold, Segoe UI" font-weight="700"><tspan x="0" y="0">3</tspan></text>
      <text id="_4" data-name="4" transform="translate(39.084 370.358)" fill="#3f4f67" font-size="30" font-family="SegoeUI-Bold, Segoe UI" font-weight="700"><tspan x="0" y="0">4</tspan></text>
      <text id="_5" data-name="5" transform="translate(146.453 370.912)" fill="#3f4f67" font-size="30" font-family="SegoeUI-Bold, Segoe UI" font-weight="700"><tspan x="0" y="0">5</tspan></text>
      <text id="_6" data-name="6" transform="translate(249.036 370.912)" fill="#3f4f67" font-size="30" font-family="SegoeUI-Bold, Segoe UI" font-weight="700"><tspan x="0" y="0">6</tspan></text>
      <text id="_7" data-name="7" transform="translate(39.78 450.279)" fill="#3f4f67" font-size="30" font-family="SegoeUI-Bold, Segoe UI" font-weight="700"><tspan x="0" y="0">7</tspan></text>
      <text id="_8" data-name="8" transform="translate(143.182 444.854)" fill="#3f4f67" font-size="30" font-family="SegoeUI-Bold, Segoe UI" font-weight="700"><tspan x="0" y="0">8</tspan></text>
      <text id="_9" data-name="9" transform="translate(248.34 444.854)" fill="#3f4f67" font-size="30" font-family="SegoeUI-Bold, Segoe UI" font-weight="700" opacity="0.9"><tspan x="0" y="0">9</tspan></text>
      <text id="_0-2" data-name="0" transform="translate(141.5 523.315)" fill="#3f4f67" font-size="30" font-family="SegoeUI-Bold, Segoe UI" font-weight="700"><tspan x="0" y="0">0</tspan></text>
      <text id="_." data-name="." transform="translate(254 515.449)" fill="#3f4f67" font-size="30" font-family="SegoeUI-Bold, Segoe UI" font-weight="700"><tspan x="0" y="0">.</tspan></text>
      <line id="Linha_2" data-name="Linha 2" x2="0.417" y2="397.949" transform="translate(206.666 167.5)" fill="none" stroke="#3f4f67" stroke-width="1"/>
      <line id="Linha_3" data-name="Linha 3" y2="397" transform="translate(310 168.449)" fill="none" stroke="#3f4f67" stroke-width="1"/>
      <g id="Icon_feather-plus" data-name="Icon feather-plus" transform="translate(351.257 422.6)">
        <path id="Caminho_4" data-name="Caminho 4" d="M18,7.5v21" transform="translate(-7.5 -7.5)" fill="none" stroke="#3f4f67" stroke-linecap="round" stroke-linejoin="round" stroke-width="3"/>
        <path id="Caminho_5" data-name="Caminho 5" d="M7.5,18h21" transform="translate(-7.5 -7.5)" fill="none" stroke="#3f4f67" stroke-linecap="round" stroke-linejoin="round" stroke-width="3"/>
      </g>
      <path id="Icon_feather-minus" data-name="Icon feather-minus" d="M7.5,18h21" transform="translate(344.453 343.673)" fill="none" stroke="#3f4f67" stroke-linecap="round" stroke-linejoin="round" stroke-width="3"/>
      <path id="Icon_material-close" data-name="Icon material-close" d="M28.5,9.615,26.385,7.5,18,15.885,9.615,7.5,7.5,9.615,15.885,18,7.5,26.385,9.615,28.5,18,20.115,26.385,28.5,28.5,26.385,20.115,18Z" transform="translate(345.712 260.262)" fill="#3f4f67"/>
      <g id="Icon_feather-delete" data-name="Icon feather-delete" transform="translate(28.798 190.713)">
        <path id="Caminho_1" data-name="Caminho 1" d="M29.049,6H11.142L1.5,17.02l9.642,11.02H29.049A2.755,2.755,0,0,0,31.8,25.284V8.755A2.755,2.755,0,0,0,29.049,6Z" transform="translate(-1.5 -6)" fill="none" stroke="#3f4f67" stroke-linecap="round" stroke-linejoin="round" stroke-width="2"/>
        <path id="Caminho_2" data-name="Caminho 2" d="M26.265,13.5,18,21.765" transform="translate(-2.848 -6.613)" fill="none" stroke="#3f4f67" stroke-linecap="round" stroke-linejoin="round" stroke-width="2"/>
        <path id="Caminho_3" data-name="Caminho 3" d="M18,13.5l8.265,8.265" transform="translate(-2.848 -6.613)" fill="none" stroke="#3f4f67" stroke-linecap="round" stroke-linejoin="round" stroke-width="2"/>
      </g>
      <text id="_1" data-name="1" transform="translate(39.084 290.713)" fill="#3f4f67" font-size="30" font-family="SegoeUI-Bold, Segoe UI" font-weight="700"><tspan x="0" y="0">1</tspan></text>
      <line id="Linha_4" data-name="Linha 4" x1="0.025" y2="397.949" transform="translate(98.037 167.5)" fill="none" stroke="#3f4f67" stroke-width="1"/>
      <line id="Linha_5" data-name="Linha 5" x1="412" transform="translate(0 167.5)" fill="none" stroke="#3f4f67" stroke-width="1"/>
      <line id="Linha_6" data-name="Linha 6" x1="412" transform="translate(0 235.5)" fill="none" stroke="#3f4f67" stroke-width="1"/>
      <line id="Linha_7" data-name="Linha 7" x1="412" transform="translate(0 322.621)" fill="none" stroke="#3f4f67" stroke-width="1"/>
      <line id="Linha_8" data-name="Linha 8" x1="412" transform="translate(0 395.532)" fill="none" stroke="#3f4f67" stroke-width="1"/>
      <line id="Linha_9" data-name="Linha 9" x1="411" transform="translate(0 469.449)" fill="none" stroke="#3f4f67" stroke-width="1"/>
      <text id="C" transform="translate(35.599 518.622)" fill="#3f4f67" stroke="#3f4f67" stroke-width="1" font-size="30" font-family="SegoeUI-Bold, Segoe UI" font-weight="700"><tspan x="0" y="0">C</tspan></text>
      <path id="Icon_awesome-equals" data-name="Icon awesome-equals" d="M27.023,20.347H2.079A2.079,2.079,0,0,0,0,22.426V24.5a2.079,2.079,0,0,0,2.079,2.079H27.023A2.079,2.079,0,0,0,29.1,24.5V22.426A2.079,2.079,0,0,0,27.023,20.347Zm0-12.472H2.079A2.079,2.079,0,0,0,0,9.954v2.079a2.079,2.079,0,0,0,2.079,2.079H27.023A2.079,2.079,0,0,0,29.1,12.032V9.954A2.079,2.079,0,0,0,27.023,7.875Z" transform="translate(347.206 495.432)" fill="#3f4f67"/>
      <g id="Icon_feather-percent" data-name="Icon feather-percent" transform="translate(246.018 192.406)">
        <path id="Caminho_7" data-name="Caminho 7" d="M31.641,7.5,7.5,31.641" transform="translate(-5.776 -5.776)" fill="none" stroke="#3f4f67" stroke-linecap="round" stroke-linejoin="round" stroke-width="3"/>
        <path id="Caminho_8" data-name="Caminho 8" d="M14.622,10.311A4.311,4.311,0,1,1,10.311,6a4.311,4.311,0,0,1,4.311,4.311Z" transform="translate(-6 -6)" fill="none" stroke="#3f4f67" stroke-linecap="round" stroke-linejoin="round" stroke-width="3"/>
        <path id="Caminho_9" data-name="Caminho 9" d="M31.122,26.811A4.311,4.311,0,1,1,26.811,22.5a4.311,4.311,0,0,1,4.311,4.311Z" transform="translate(-3.532 -3.532)" fill="none" stroke="#3f4f67" stroke-linecap="round" stroke-linejoin="round" stroke-width="3"/>
      </g>
      <path id="Icon_awesome-divide" data-name="Icon awesome-divide" d="M15.224,24a4.35,4.35,0,1,0,4.35,4.35A4.349,4.349,0,0,0,15.224,24Zm0-13.049a4.35,4.35,0,1,0-4.35-4.35A4.349,4.349,0,0,0,15.224,10.949Zm13.049,3.262H2.175A2.175,2.175,0,0,0,0,16.386v2.175a2.175,2.175,0,0,0,2.175,2.175h26.1a2.175,2.175,0,0,0,2.175-2.175V16.386A2.175,2.175,0,0,0,28.273,14.212Z" transform="translate(344.666 188.728)" fill="#3f4f67"/>
      <text id="_-" data-name="+/-" transform="translate(139 209.449)" fill="#3f4f67" font-size="20" font-family="Poppins-Bold, Poppins" font-weight="700"><tspan x="0" y="0">+/-</tspan></text>
    </g>
  </g>
</svg>
